<svg width="144" height="64" viewBox="0 0 144 64" fill="none" xmlns="http://www.w3.org/2000/svg">
<rect width="144" height="64" fill="#444F60"/>
<path d="M30.5 60C46.2401 60 59 47.464 59 32C59 16.536 46.2401 4 30.5 4C14.7599 4 2 16.536 2 32C2 47.464 14.7599 60 30.5 60Z" fill="#DAE5EB"/>
<path d="M47.2374 29.2574C47.2338 28.1478 47.0048 27.05 46.5637 26.0284C46.1226 25.0069 45.4784 24.0822 44.6688 23.3085C43.8592 22.5347 42.9004 21.9276 41.8489 21.5227C40.7973 21.1178 39.674 20.9233 38.5449 20.9505C30.4352 20.9505 26.2514 25.8449 24.2236 33.8361L27.266 35.0394C29.2945 28.8738 30.8477 26.6002 32.862 25.8841V38.1397H44.2278" fill="#E8F4FA"/>
<path d="M38.5413 20.9505C30.4316 20.9505 26.2478 25.8449 24.22 33.8361L24.6917 34.0223C26.8691 27.0223 31.0116 22.7971 38.542 22.7971C39.6711 22.7699 40.7944 22.9644 41.846 23.3693C42.8976 23.7742 43.8563 24.3813 44.6659 25.1551C45.4755 25.9288 46.1198 26.8535 46.5608 27.875C47.0019 28.8966 47.2309 29.9944 47.2345 31.104V29.2574C47.2309 28.1477 47.0019 27.0499 46.5608 26.0283C46.1197 25.0067 45.4754 24.0819 44.6657 23.3082C43.856 22.5345 42.8972 21.9274 41.8455 21.5225C40.7938 21.1177 39.6705 20.9232 38.5413 20.9505V20.9505Z" fill="white"/>
<path d="M47.2374 29.2875C47.2379 28.1753 47.0119 27.0743 46.5726 26.0492C46.1334 25.0242 45.4898 24.0959 44.6797 23.319C43.8697 22.5421 42.9096 21.9323 41.856 21.5255C40.8024 21.1187 39.6766 20.9232 38.5449 20.9505C30.4352 20.9505 26.2514 25.8449 24.2236 33.8361L27.266 35.0394C29.2945 28.8738 30.8477 26.6002 32.862 25.8841V38.1397H44.2278" stroke="#45413C" stroke-linecap="round" stroke-linejoin="round"/>
<path d="M32.8555 38.1397L30.2699 52.3609H34.4807L37.5466 41.548C37.5656 41.3016 37.6787 41.0714 37.8631 40.9034C38.0475 40.7354 38.2898 40.642 38.5413 40.642C38.7928 40.642 39.035 40.7354 39.2195 40.9034C39.4039 41.0714 39.5169 41.3016 39.5359 41.548L42.5997 52.3581H46.8163L44.2277 38.1397H32.8555Z" fill="#87898C"/>
<path d="M44.5655 39.9996L44.2277 38.1397H32.8555L32.5171 39.9996H44.5655Z" fill="#656769"/>
<path d="M32.8555 38.1397L30.2699 52.3609H34.4807L37.5466 41.548C37.5656 41.3016 37.6787 41.0714 37.8631 40.9034C38.0475 40.7354 38.2898 40.642 38.5413 40.642C38.7928 40.642 39.035 40.7354 39.2195 40.9034C39.4039 41.0714 39.5169 41.3016 39.5359 41.548L42.5997 52.3581H46.8163L44.2277 38.1397H32.8555Z" stroke="#45413C" stroke-linecap="round" stroke-linejoin="round"/>
<path opacity="0.15" d="M38.5705 54.1816C43.4019 54.1816 47.3186 53.6043 47.3186 52.8922C47.3186 52.1801 43.4019 51.6028 38.5705 51.6028C33.7391 51.6028 29.8224 52.1801 29.8224 52.8922C29.8224 53.6043 33.7391 54.1816 38.5705 54.1816Z" fill="#45413C"/>
<path d="M30.6425 52.748C30.4925 52.7494 30.3447 52.7128 30.2134 52.6416C30.082 52.5704 29.9716 52.4672 29.8928 52.3418C29.8139 52.2164 29.7694 52.0732 29.7634 51.9259C29.7575 51.7787 29.7903 51.6324 29.8588 51.5013C30.0857 51.098 30.4186 50.7619 30.8228 50.5279C31.2269 50.294 31.6875 50.1709 32.1566 50.1713H32.594C33.0631 50.171 33.5236 50.2942 33.9278 50.5281C34.3319 50.762 34.6648 51.0981 34.8919 51.5013C34.9601 51.6324 34.9928 51.7787 34.9867 51.9258C34.9806 52.073 34.9361 52.2161 34.8573 52.3415C34.7785 52.4668 34.6682 52.57 34.537 52.6412C34.4057 52.7124 34.258 52.7492 34.1081 52.748H30.6425Z" fill="#656769" stroke="#45413C" stroke-linecap="round" stroke-linejoin="round"/>
<path d="M46.4394 52.748C46.5893 52.7492 46.737 52.7124 46.8682 52.6412C46.9994 52.57 47.1098 52.4668 47.1885 52.3415C47.2673 52.2161 47.3119 52.073 47.3179 51.9258C47.324 51.7787 47.2913 51.6324 47.2231 51.5013C46.996 51.0981 46.6631 50.762 46.259 50.5281C45.8549 50.2942 45.3943 50.171 44.9253 50.1713H44.4878C44.0188 50.1709 43.5582 50.2941 43.1541 50.528C42.7499 50.7619 42.417 51.098 42.19 51.5013C42.1218 51.6324 42.0891 51.7787 42.0952 51.9258C42.1012 52.073 42.1458 52.2161 42.2246 52.3415C42.3033 52.4668 42.4137 52.57 42.5449 52.6412C42.6761 52.7124 42.8238 52.7492 42.9738 52.748H46.4394Z" fill="#656769" stroke="#45413C" stroke-linecap="round" stroke-linejoin="round"/>
<path d="M43.0991 36.4205H32.8555V38.1397H43.0991V36.4205Z" fill="#B89558" stroke="#45413C" stroke-linecap="round" stroke-linejoin="round"/>
<path d="M32.8555 36.4205C32.8598 34.9316 32.8555 31.5835 32.8555 27.0223" stroke="#45413C" stroke-linecap="round" stroke-linejoin="round"/>
<path d="M55.7781 43.7943L55.0492 42.4034C54.1007 40.5838 52.6584 39.0574 50.8819 37.993C49.1054 36.9286 47.0638 36.3676 44.983 36.3722H39.1362C37.5247 36.3751 35.9528 35.8821 34.641 34.9624L34.2634 34.6999C32.4475 33.3111 30.2344 32.5161 27.935 32.4263C24.3989 32.4263 21.7854 34.6453 19.8218 36.4989C19.7541 36.5628 19.6999 36.6393 19.6624 36.7239C19.6249 36.8084 19.6047 36.8995 19.6031 36.9917C19.6015 37.084 19.6185 37.1756 19.6531 37.2614C19.6877 37.3471 19.7392 37.4254 19.8047 37.4915L21.2945 38.9965C21.4259 39.1292 21.6055 39.2053 21.7939 39.2081C21.9823 39.211 22.1642 39.1405 22.2998 39.0119C24.0383 37.3655 25.7376 35.9249 27.9065 35.9249C29.4762 36.0134 30.9784 36.5825 32.2022 37.5524L32.5791 37.8156C34.4932 39.1573 36.787 39.8765 39.1383 39.8722H44.9851C46.4113 39.869 47.8105 40.2534 49.0281 40.9829C50.2457 41.7124 51.2342 42.7586 51.8843 44.0057L52.6103 45.398C53.0305 46.2003 53.5477 46.9498 54.1507 47.6303C54.8731 46.5783 55.5215 45.4791 56.0916 44.3403C55.9804 44.1625 55.8759 43.9805 55.7781 43.7943Z" fill="#FF6242"/>
<path d="M55.7781 43.7943L55.0492 42.4034C54.1007 40.5838 52.6584 39.0574 50.8819 37.993C49.1054 36.9286 47.0638 36.3676 44.983 36.3722H39.1362C37.5247 36.3751 35.9528 35.8821 34.641 34.9624L34.2634 34.6999C32.4475 33.3111 30.2344 32.5161 27.935 32.4263C24.3989 32.4263 21.7854 34.6453 19.8218 36.4989C19.7541 36.5628 19.6999 36.6393 19.6624 36.7239C19.6249 36.8084 19.6047 36.8995 19.6031 36.9917C19.6015 37.084 19.6185 37.1756 19.6531 37.2614C19.6877 37.3471 19.7392 37.4254 19.8047 37.4915L20.0348 37.7239C21.9728 35.9144 24.5235 33.8515 27.935 33.8515C30.2351 33.9405 32.449 34.7354 34.2656 36.1244L34.6432 36.3876C35.9549 37.3073 37.5269 37.8003 39.1383 37.7974H45.4696C47.2082 37.7971 48.9132 38.2673 50.3977 39.1564C51.8822 40.0454 53.0887 41.319 53.885 42.8374L55.1311 45.2174C55.2095 45.3672 55.295 45.5128 55.3862 45.6556C55.6327 45.2225 55.8679 44.7825 56.0916 44.3354C55.9804 44.1609 55.8759 43.9805 55.7781 43.7943Z" fill="#FF866E"/>
<path d="M55.7781 43.7943L55.0492 42.4034C54.1007 40.5838 52.6584 39.0574 50.8819 37.993C49.1054 36.9286 47.0638 36.3676 44.983 36.3722H39.1362C37.5247 36.3751 35.9528 35.8821 34.641 34.9624L34.2634 34.6999C32.4475 33.3111 30.2344 32.5161 27.935 32.4263C24.3989 32.4263 21.7854 34.6453 19.8218 36.4989C19.7541 36.5628 19.6999 36.6393 19.6624 36.7239C19.6249 36.8084 19.6047 36.8995 19.6031 36.9917C19.6015 37.0839 19.6185 37.1756 19.6531 37.2614C19.6877 37.3471 19.7392 37.4254 19.8047 37.4915L21.2945 38.9965C21.4259 39.1292 21.6055 39.2053 21.7939 39.2081C21.9823 39.211 22.1642 39.1405 22.2998 39.0119C24.0383 37.3655 25.7376 35.9249 27.9065 35.9249C29.4762 36.0134 30.9784 36.5825 32.2022 37.5524L32.5791 37.8156C34.4932 39.1573 36.787 39.8765 39.1383 39.8722H44.9851C46.4113 39.869 47.8105 40.2534 49.0281 40.9829C50.2457 41.7124 51.2342 42.7586 51.8843 44.0057L52.6103 45.398C53.0319 46.2 53.5506 46.9491 54.155 47.6289C54.8769 46.5767 55.5251 45.4775 56.0951 44.3389C55.9816 44.162 55.8759 43.9805 55.7781 43.7943Z" stroke="#45413C" stroke-linecap="round" stroke-linejoin="round"/>
<path d="M27.1591 36.5626L25.3315 36.1377C25.1059 36.0989 24.9006 35.9855 24.7496 35.8163C24.5986 35.6471 24.511 35.4322 24.5015 35.2074L24.5342 34.3317C24.5534 34.1972 24.6026 34.0686 24.6783 33.9551C24.7541 33.8415 24.8545 33.7458 24.9723 33.6749C25.0901 33.604 25.2225 33.5595 25.3599 33.5448C25.4972 33.5301 25.6362 33.5454 25.7669 33.5897L27.9322 34.093C28.0691 34.111 28.2003 34.1585 28.3164 34.2322C28.4325 34.3059 28.5305 34.4038 28.6035 34.5191C28.6765 34.6344 28.7227 34.7641 28.7386 34.8989C28.7546 35.0338 28.74 35.1704 28.696 35.2991L28.3255 36.0957C28.2144 36.2926 28.0382 36.4463 27.8261 36.5312C27.6139 36.6161 27.3785 36.6272 27.1591 36.5626V36.5626Z" fill="#FFCEBF" stroke="#45413C" stroke-linecap="round" stroke-linejoin="round"/>
<path d="M41.5338 36.7299C41.3064 37.0603 41.2218 37.4659 41.2988 37.8575C41.3758 38.2491 41.6079 38.5946 41.9442 38.818C42.2804 39.0414 42.6933 39.1245 43.0919 39.0489C43.4904 38.9732 43.8421 38.7452 44.0696 38.4148L44.9246 37.1688L42.3881 35.4839L41.5338 36.7299Z" fill="#FFCEBF" stroke="#45413C" stroke-linecap="round" stroke-linejoin="round"/>
<path d="M44.0959 28.038V31.7697C44.0962 32.3734 43.9292 32.9657 43.6129 33.4833L42.3909 35.4853L44.9274 37.1702L46.7286 34.3142C47.0612 33.7872 47.2374 33.1794 47.2374 32.5593V29.1475" fill="#E8F4FA"/>
<path d="M44.0959 28.038V31.7697C44.0962 32.3734 43.9292 32.9657 43.6129 33.4833L42.3909 35.4853L44.9274 37.1702L46.7286 34.3142C47.0612 33.7872 47.2374 33.1794 47.2374 32.5593V29.1475" stroke="#45413C" stroke-linecap="round" stroke-linejoin="round"/>
<path d="M20.2742 37.9864L17.2553 40.4938" stroke="#45413C" stroke-linecap="round" stroke-linejoin="round"/>
<path d="M20.83 38.5296L19.1257 41.4906" stroke="#45413C" stroke-linecap="round" stroke-linejoin="round"/>
<path d="M38.0318 23.7414L36.7978 33.5876L38.547 35.5567L40.2969 33.5876L38.7928 23.7414H38.0318Z" fill="#6DD627" stroke="#45413C" stroke-linecap="round" stroke-linejoin="round"/>
<path d="M39.5537 23.7414H37.2716V25.9835H39.5537V23.7414Z" fill="#FF6242" stroke="#45413C" stroke-linecap="round" stroke-linejoin="round"/>
<path d="M34.3162 21.4636L35.9549 24.7662C36.0397 24.8548 36.1426 24.9248 36.257 24.9714C36.3713 25.018 36.4944 25.0402 36.6182 25.0366C36.7419 25.0329 36.8634 25.0035 36.9747 24.9503C37.086 24.897 37.1846 24.8212 37.2638 24.7277L38.4722 23.768L36.5997 21.185V21.0492C35.8286 21.1276 35.0649 21.2662 34.3162 21.4636V21.4636Z" fill="white" stroke="#45413C" stroke-linecap="round" stroke-linejoin="round"/>
<path d="M40.3411 21.108V21.1899L38.4722 23.768L39.6756 24.7263C39.7548 24.8198 39.8533 24.8956 39.9646 24.9489C40.0759 25.0021 40.1975 25.0315 40.3212 25.0352C40.4449 25.0388 40.568 25.0166 40.6824 24.97C40.7967 24.9234 40.8997 24.8534 40.9844 24.7648L42.4579 21.7982C41.7852 21.4803 41.0738 21.2484 40.3411 21.108V21.108Z" fill="white" stroke="#45413C" stroke-linecap="round" stroke-linejoin="round"/>
<path d="M40.3404 21.1864L38.4722 23.7694L36.5997 21.1864L36.604 17.2006H40.3446L40.3404 21.1864Z" fill="#FFCEBF" stroke="#45413C" stroke-linecap="round" stroke-linejoin="round"/>
<path d="M30.5 60C46.2401 60 59 47.464 59 32C59 16.536 46.2401 4 30.5 4C14.7599 4 2 16.536 2 32C2 47.464 14.7599 60 30.5 60Z" stroke="#DAEDF7" stroke-miterlimit="10"/>
<path d="M38.4087 20.2505C39.5113 20.2608 40.5885 19.9254 41.4837 19.2931C42.379 18.6608 43.0457 17.7645 43.387 16.7344H43.3962C45.04 16.754 45.1711 14.2018 43.6876 14.1843L43.7005 13.163C43.6754 11.8352 43.1251 10.5692 42.1662 9.63312C41.2073 8.69706 39.9152 8.16452 38.5636 8.14832C37.2119 8.13212 35.907 8.63354 34.9251 9.54634C33.9433 10.4591 33.3617 11.7116 33.3037 13.0384L33.2916 14.0597C31.8074 14.0415 31.8765 16.5965 33.5196 16.6161H33.5238C33.8391 17.6534 34.4826 18.565 35.361 19.2185C36.2394 19.8721 37.307 20.2335 38.4087 20.2505V20.2505Z" fill="#FFCEBF" stroke="#45413C" stroke-linecap="round" stroke-linejoin="round"/>
<path d="M35.8665 15.624C35.8651 15.7249 35.8333 15.8232 35.7751 15.9064C35.7169 15.9896 35.6349 16.054 35.5395 16.0914C35.4441 16.1288 35.3396 16.1375 35.2391 16.1165C35.1387 16.0955 35.0468 16.0457 34.9751 15.9733C34.9035 15.901 34.8552 15.8094 34.8365 15.7101C34.8177 15.6108 34.8294 15.5083 34.8698 15.4155C34.9103 15.3227 34.9779 15.2438 35.064 15.1887C35.1501 15.1337 35.2508 15.105 35.3535 15.1062C35.4218 15.107 35.4892 15.1211 35.552 15.1475C35.6147 15.174 35.6716 15.2124 35.7192 15.2605C35.7668 15.3086 35.8044 15.3654 35.8297 15.4278C35.8549 15.4902 35.8675 15.5568 35.8665 15.624V15.624Z" fill="#FFB59E"/>
<path d="M42.1045 15.6982C42.1032 15.7993 42.0714 15.8979 42.0132 15.9813C41.955 16.0647 41.8729 16.1292 41.7773 16.1668C41.6817 16.2043 41.577 16.2131 41.4764 16.1921C41.3757 16.1711 41.2837 16.1212 41.2118 16.0487C41.14 15.9762 41.0917 15.8845 41.073 15.785C41.0542 15.6855 41.0659 15.5828 41.1066 15.4898C41.1472 15.3968 41.215 15.3178 41.3013 15.2627C41.3876 15.2077 41.4886 15.179 41.5915 15.1804C41.6598 15.1812 41.7272 15.1953 41.7899 15.2217C41.8527 15.2482 41.9095 15.2866 41.9571 15.3347C42.0048 15.3828 42.0423 15.4396 42.0676 15.502C42.0929 15.5644 42.1054 15.631 42.1045 15.6982V15.6982Z" fill="#FFB59E"/>
<path d="M39.7475 17.217C39.3658 17.4741 38.9153 17.6142 38.4527 17.6197C37.9901 17.6252 37.5362 17.4958 37.1483 17.2479" stroke="#45413C" stroke-linecap="round" stroke-linejoin="round"/>
<path d="M35.6742 11.0105C37.8302 13.1161 41.5295 12.9201 43.9263 12.2348C44.0177 12.2084 44.0975 12.1527 44.153 12.0766C44.2086 12.0005 44.2366 11.9083 44.2327 11.8148C44.1625 10.3539 43.5152 8.97743 42.4283 7.97799C41.3414 6.97856 39.9007 6.43492 38.4123 6.4626C36.8981 6.52958 35.4688 7.16874 34.423 8.24658C33.3772 9.32443 32.7956 10.7576 32.7999 12.2467L32.7878 13.1903C32.7868 13.2603 32.8033 13.3294 32.836 13.3916C32.8686 13.4537 32.9164 13.507 32.975 13.5468C33.0336 13.5865 33.1013 13.6114 33.172 13.6193C33.2428 13.6272 33.3144 13.6179 33.3806 13.5921C34.2228 13.2673 35.6556 12.4973 35.6742 11.0112" fill="#FFDF3D"/>
<path d="M35.6742 11.0105C37.8302 13.1161 41.5295 12.9201 43.9263 12.2348C44.0177 12.2084 44.0975 12.1527 44.153 12.0766C44.2086 12.0005 44.2366 11.9083 44.2327 11.8148C44.1625 10.3539 43.5152 8.97743 42.4283 7.97799C41.3414 6.97856 39.9007 6.43492 38.4123 6.4626C36.8981 6.52958 35.4688 7.16874 34.423 8.24658C33.3772 9.32443 32.7956 10.7576 32.7999 12.2467L32.7878 13.1903C32.7868 13.2603 32.8033 13.3294 32.836 13.3916C32.8686 13.4537 32.9164 13.507 32.975 13.5468C33.0336 13.5865 33.1013 13.6114 33.172 13.6193C33.2428 13.6272 33.3144 13.6179 33.3806 13.5921C34.2228 13.2673 35.6556 12.4973 35.6742 11.0112" stroke="#45413C" stroke-linecap="round" stroke-linejoin="round"/>
<path d="M38.3831 8.8097C39.5325 8.78822 40.6619 9.10754 41.6239 9.726C42.5859 10.3445 43.3359 11.2334 43.776 12.2768L43.9263 12.2348C44.0177 12.2084 44.0975 12.1527 44.153 12.0766C44.2086 12.0005 44.2366 11.9083 44.2327 11.8148C44.1625 10.3539 43.5152 8.97743 42.4283 7.97799C41.3414 6.97856 39.9007 6.43492 38.4123 6.4626C36.8981 6.52958 35.4688 7.16874 34.423 8.24658C33.3772 9.32443 32.7956 10.7576 32.7999 12.2467L32.7878 13.1903C32.7863 13.2943 32.8239 13.3952 32.8933 13.4738C33.1349 12.2002 33.8098 11.0451 34.8072 10.1977C35.8046 9.35029 37.0655 8.86089 38.3831 8.8097V8.8097Z" fill="#FFEF9E"/>
<path d="M35.6742 11.0105C37.8302 13.1161 41.5295 12.9201 43.9263 12.2348C44.0177 12.2084 44.0975 12.1527 44.153 12.0766C44.2086 12.0005 44.2366 11.9083 44.2327 11.8148C44.1625 10.3539 43.5152 8.97743 42.4283 7.97799C41.3414 6.97856 39.9007 6.43492 38.4123 6.4626C36.8981 6.52958 35.4688 7.16874 34.423 8.24658C33.3772 9.32443 32.7956 10.7576 32.7999 12.2467L32.7878 13.1903C32.7868 13.2603 32.8033 13.3294 32.836 13.3916C32.8686 13.4537 32.9164 13.507 32.975 13.5468C33.0336 13.5865 33.1013 13.6114 33.172 13.6193C33.2428 13.6272 33.3144 13.6179 33.3806 13.5921C34.2228 13.2673 35.6556 12.4973 35.6742 11.0112" stroke="#45413C" stroke-linecap="round" stroke-linejoin="round"/>
<path d="M35.6742 11.011C35.4742 10.8608 35.3019 10.6781 35.1647 10.4708" stroke="#45413C" stroke-linecap="round" stroke-linejoin="round"/>
<path d="M36.7415 14.9417C37.1126 14.9417 37.4134 14.6462 37.4134 14.2816C37.4134 13.917 37.1126 13.6215 36.7415 13.6215C36.3704 13.6215 36.0696 13.917 36.0696 14.2816C36.0696 14.6462 36.3704 14.9417 36.7415 14.9417Z" fill="#45413C"/>
<path d="M40.2035 14.9417C40.5746 14.9417 40.8754 14.6462 40.8754 14.2816C40.8754 13.917 40.5746 13.6215 40.2035 13.6215C39.8325 13.6215 39.5316 13.917 39.5316 14.2816C39.5316 14.6462 39.8325 14.9417 40.2035 14.9417Z" fill="#45413C"/>
<path d="M77.6847 32.4048C75.6156 32.4048 73.8388 31.9505 72.3545 31.0419C70.8791 30.1333 69.7411 28.8783 68.9404 27.277C68.1487 25.6667 67.7529 23.8134 67.7529 21.7173C67.7529 19.6122 68.1577 17.7545 68.9674 16.1442C69.7771 14.5249 70.9196 13.2654 72.395 12.3658C73.8793 11.4571 75.6336 11.0028 77.6577 11.0028C79.34 11.0028 80.8289 11.3132 82.1244 11.9339C83.4288 12.5457 84.4679 13.4138 85.2415 14.5384C86.0152 15.6539 86.456 16.9583 86.564 18.4517H81.895C81.706 17.4531 81.2562 16.621 80.5455 15.9553C79.8438 15.2805 78.9037 14.9432 77.7252 14.9432C76.7266 14.9432 75.8495 15.2131 75.0938 15.7528C74.3381 16.2836 73.7489 17.0483 73.3261 18.0469C72.9122 19.0455 72.7053 20.242 72.7053 21.6364C72.7053 23.0488 72.9122 24.2633 73.3261 25.2798C73.7399 26.2874 74.3201 27.0656 75.0668 27.6143C75.8225 28.1541 76.7086 28.424 77.7252 28.424C78.4449 28.424 79.0881 28.2891 79.6549 28.0192C80.2307 27.7403 80.712 27.34 81.0988 26.8182C81.4856 26.2964 81.751 25.6622 81.895 24.9155H86.564C86.447 26.3819 86.0152 27.6818 85.2685 28.8153C84.5218 29.9399 83.5053 30.8215 82.2188 31.4602C80.9324 32.09 79.421 32.4048 77.6847 32.4048ZM97.7164 32.4048C95.6922 32.4048 93.938 31.9595 92.4536 31.0689C90.9692 30.1783 89.8177 28.9323 88.999 27.331C88.1894 25.7296 87.7845 23.8584 87.7845 21.7173C87.7845 19.5762 88.1894 17.7005 88.999 16.0902C89.8177 14.4799 90.9692 13.2294 92.4536 12.3388C93.938 11.4482 95.6922 11.0028 97.7164 11.0028C99.7405 11.0028 101.495 11.4482 102.979 12.3388C104.464 13.2294 105.611 14.4799 106.42 16.0902C107.239 17.7005 107.648 19.5762 107.648 21.7173C107.648 23.8584 107.239 25.7296 106.42 27.331C105.611 28.9323 104.464 30.1783 102.979 31.0689C101.495 31.9595 99.7405 32.4048 97.7164 32.4048ZM97.7434 28.4915C98.8409 28.4915 99.7585 28.1901 100.496 27.5874C101.234 26.9756 101.783 26.157 102.143 25.1314C102.511 24.1058 102.696 22.9633 102.696 21.7038C102.696 20.4354 102.511 19.2884 102.143 18.2628C101.783 17.2282 101.234 16.4051 100.496 15.7933C99.7585 15.1816 98.8409 14.8757 97.7434 14.8757C96.6188 14.8757 95.6832 15.1816 94.9365 15.7933C94.1988 16.4051 93.6456 17.2282 93.2767 18.2628C92.9169 19.2884 92.737 20.4354 92.737 21.7038C92.737 22.9633 92.9169 24.1058 93.2767 25.1314C93.6456 26.157 94.1988 26.9756 94.9365 27.5874C95.6832 28.1901 96.6188 28.4915 97.7434 28.4915ZM109.894 32V11.2727H114.631V14.7273H114.847C115.225 13.5308 115.872 12.6087 116.79 11.9609C117.717 11.3042 118.774 10.9759 119.961 10.9759C120.231 10.9759 120.532 10.9893 120.865 11.0163C121.207 11.0343 121.49 11.0658 121.715 11.1108V15.6044C121.508 15.5324 121.18 15.4695 120.73 15.4155C120.289 15.3525 119.862 15.321 119.448 15.321C118.558 15.321 117.757 15.5144 117.046 15.9013C116.345 16.2791 115.791 16.8054 115.387 17.4801C114.982 18.1548 114.779 18.933 114.779 19.8146V32H109.894ZM128.654 32.4183C127.341 32.4183 126.158 32.1844 125.105 31.7166C124.062 31.2398 123.234 30.5381 122.622 29.6115C122.019 28.6849 121.718 27.5424 121.718 26.1839C121.718 25.0144 121.934 24.0473 122.366 23.2827C122.798 22.518 123.387 21.9062 124.134 21.4474C124.88 20.9886 125.721 20.6423 126.657 20.4084C127.602 20.1655 128.578 19.9901 129.585 19.8821C130.8 19.7562 131.785 19.6437 132.54 19.5447C133.296 19.4368 133.845 19.2749 134.187 19.0589C134.538 18.834 134.713 18.4877 134.713 18.0199V17.9389C134.713 16.9223 134.412 16.1352 133.809 15.5774C133.206 15.0196 132.338 14.7408 131.205 14.7408C130.008 14.7408 129.059 15.0017 128.357 15.5234C127.665 16.0452 127.197 16.6615 126.954 17.3722L122.393 16.7244C122.753 15.465 123.346 14.4124 124.174 13.5668C125.002 12.7121 126.014 12.0734 127.21 11.6506C128.407 11.2188 129.729 11.0028 131.178 11.0028C132.176 11.0028 133.17 11.1198 134.16 11.3537C135.149 11.5876 136.054 11.9744 136.872 12.5142C137.691 13.045 138.348 13.7692 138.842 14.6868C139.346 15.6044 139.598 16.7514 139.598 18.1278V32H134.902V29.1527H134.74C134.443 29.7285 134.025 30.2682 133.485 30.772C132.954 31.2668 132.284 31.6671 131.474 31.973C130.674 32.2699 129.734 32.4183 128.654 32.4183ZM129.923 28.8288C130.903 28.8288 131.753 28.6354 132.473 28.2486C133.193 27.8527 133.746 27.331 134.133 26.6832C134.529 26.0355 134.727 25.3293 134.727 24.5646V22.1222C134.574 22.2481 134.313 22.3651 133.944 22.473C133.584 22.581 133.179 22.6754 132.729 22.7564C132.28 22.8374 131.834 22.9093 131.393 22.9723C130.953 23.0353 130.57 23.0893 130.246 23.1342C129.518 23.2332 128.866 23.3951 128.29 23.62C127.714 23.8449 127.26 24.1598 126.927 24.5646C126.594 24.9605 126.428 25.4732 126.428 26.103C126.428 27.0026 126.756 27.6818 127.413 28.1406C128.069 28.5994 128.906 28.8288 129.923 28.8288Z" fill="#60A2C3"/>
<path d="M106.11 31.3636V59H101.657L88.6347 40.1754H88.4053V59H83.3989V31.3636H87.879L100.888 50.2017H101.13V31.3636H106.11ZM118.625 59.4048C116.547 59.4048 114.752 58.973 113.241 58.1094C111.739 57.2367 110.583 56.0043 109.773 54.4119C108.963 52.8106 108.558 50.9259 108.558 48.7578C108.558 46.6257 108.963 44.7545 109.773 43.1442C110.592 41.5249 111.734 40.2654 113.2 39.3658C114.667 38.4571 116.39 38.0028 118.369 38.0028C119.646 38.0028 120.852 38.2098 121.985 38.6236C123.128 39.0284 124.135 39.6581 125.008 40.5128C125.89 41.3674 126.582 42.456 127.086 43.7784C127.59 45.0919 127.842 46.6572 127.842 48.4744V49.9723H110.852V46.6797H123.159C123.15 45.7441 122.948 44.9119 122.552 44.1832C122.156 43.4455 121.603 42.8653 120.892 42.4425C120.19 42.0196 119.372 41.8082 118.436 41.8082C117.438 41.8082 116.561 42.0511 115.805 42.5369C115.049 43.0137 114.46 43.6435 114.037 44.4261C113.623 45.1998 113.412 46.05 113.403 46.9766V49.8509C113.403 51.0563 113.623 52.0909 114.064 52.9545C114.505 53.8092 115.121 54.4659 115.913 54.9247C116.704 55.3745 117.631 55.5994 118.693 55.5994C119.403 55.5994 120.047 55.5005 120.622 55.3026C121.198 55.0956 121.697 54.7943 122.12 54.3984C122.543 54.0026 122.862 53.5123 123.078 52.9276L127.639 53.4403C127.351 54.6458 126.803 55.6984 125.993 56.598C125.192 57.4886 124.167 58.1813 122.916 58.6761C121.666 59.1619 120.235 59.4048 118.625 59.4048ZM140.425 38.2727V42.0511H128.509V38.2727H140.425ZM131.451 33.3068H136.336V52.7656C136.336 53.4223 136.435 53.9261 136.633 54.277C136.84 54.6188 137.109 54.8527 137.442 54.9787C137.775 55.1046 138.144 55.1676 138.549 55.1676C138.855 55.1676 139.134 55.1451 139.385 55.1001C139.646 55.0552 139.844 55.0147 139.979 54.9787L140.802 58.7976C140.541 58.8875 140.168 58.9865 139.682 59.0945C139.206 59.2024 138.621 59.2654 137.928 59.2834C136.705 59.3194 135.603 59.1349 134.622 58.7301C133.641 58.3163 132.863 57.6776 132.287 56.8139C131.721 55.9503 131.442 54.8707 131.451 53.5753V33.3068Z" fill="#AACDDF"/>
</svg>
