<svg width="86" height="55" viewBox="0 0 86 55" fill="none" xmlns="http://www.w3.org/2000/svg">
<g clip-path="url(#clip0_6_882)">
<g style="mix-blend-mode:multiply">
<path d="M38.8143 22.7162L28.9136 28.4326L27.9245 13.6271L-3.97821e-06 29.7491L10.8898 38.8382L42.2288 54.066H60.9475L38.8143 22.7162Z" fill="#C8C7D1"/>
</g>
<path d="M34.4183 20.111L60.1429 5.25919L42.4504 0.424698L16.7266 15.2764L34.4183 20.111Z" fill="#F0E8E1"/>
<path d="M59.624 48.8995L85.3478 34.047L85.7362 25.9138L60.0116 40.7655L59.624 48.8995Z" fill="#EDE0D1"/>
<path d="M59.5931 49.5481L85.3169 34.6963L85.3478 34.047L59.624 48.8995L59.5931 49.5481Z" fill="#C8BCAE"/>
<path d="M59.5931 49.5481L85.3169 34.6963L85.1471 38.2653L59.4225 53.117L59.5931 49.5481Z" fill="#DED1C1"/>
<path d="M60.0116 40.7655L85.7362 25.9138L60.1429 5.2592L34.4183 20.111L60.0116 40.7655Z" fill="#FAF2EB"/>
<path d="M16.7266 15.2764L17.7358 29.0495L59.4225 53.117L60.0116 40.7655L34.4183 20.111L16.7266 15.2764Z" fill="#C8BCAE"/>
<path d="M59.5931 49.5481L17.4555 25.2196L17.7358 29.0495L59.4225 53.117L59.5931 49.5481Z" fill="#BDB1A4"/>
<path d="M59.5931 49.5481L17.4555 25.2196L17.4038 24.5239L59.624 48.8995L59.5931 49.5481Z" fill="#8E8880"/>
<path d="M49.8014 9.00111L49.4778 7.41123L33.3651 3.00912L33.3705 3.03538L33.5713 5.55185L34.7295 4.88239L49.8014 9.00111Z" fill="#82746D"/>
<path d="M33.3651 3.00912L38.5757 0L54.6884 4.40286L49.4778 7.41123L33.3651 3.00912Z" fill="#BAAFA4"/>
<path d="M49.8013 9.0011L55.0127 5.99276L54.6884 4.40286L49.4778 7.41123L49.8013 9.0011Z" fill="#978A82"/>
<path d="M42.0481 13.4773L41.7245 11.8875L25.6118 7.48459L25.6172 7.51159L25.818 10.0281L26.9762 9.35938L42.0481 13.4773Z" fill="#82746D"/>
<path d="M25.6118 7.48459L30.8224 4.47623L46.9351 8.87911L41.7245 11.8875L25.6118 7.48459Z" fill="#BAAFA4"/>
<path d="M42.0481 13.4773L47.2594 10.469L46.9351 8.8791L41.7245 11.8874L42.0481 13.4773Z" fill="#978A82"/>
<path d="M34.2948 17.9535L33.9713 16.3645L17.8586 11.9616L17.864 11.9878L18.0647 14.5043L19.223 13.8356L34.2948 17.9535Z" fill="#82746D"/>
<path d="M17.8585 11.9616L23.0691 8.95322L39.1818 13.3553L33.9712 16.3644L17.8585 11.9616Z" fill="#BAAFA4"/>
<path d="M34.2948 17.9535L39.5061 14.9452L39.1818 13.3553L33.9713 16.3644L34.2948 17.9535Z" fill="#978A82"/>
</g>
<defs>
<clipPath id="clip0_6_882">
<rect width="85.7362" height="54.066" fill="white" transform="matrix(-1 0 0 1 85.7362 0)"/>
</clipPath>
</defs>
</svg>
