<svg width="300" height="300" viewBox="0 0 300 300" fill="none" xmlns="http://www.w3.org/2000/svg">
<path d="M212.671 78.6244C212.932 80.9211 211.28 82.9972 208.984 83.2587L200.305 84.2467C199.715 86.8005 197.558 88.774 194.895 89.0771L178.253 90.9718C174.812 91.3635 171.693 88.8822 171.301 85.4414L170.591 79.2004L156.029 80.8583C154.88 80.989 153.842 80.1631 153.711 79.0148L153.475 76.9345L128.511 79.7765C121.629 80.5599 116.667 86.7977 117.45 93.6793C118.233 100.561 124.471 105.524 131.353 104.74L195.843 97.3984C206.165 96.2232 215.522 103.667 216.697 113.99C217.872 124.312 210.428 133.669 200.106 134.844L177.222 137.449L177.459 139.529C177.59 140.678 176.764 141.716 175.615 141.847L161.053 143.504L161.764 149.745C162.156 153.186 159.674 156.305 156.233 156.697L139.591 158.591C136.928 158.895 134.383 157.456 133.234 155.101L124.555 156.089C122.262 156.35 120.182 154.694 119.921 152.402L117.552 131.599C117.291 129.306 118.947 127.225 121.239 126.964L129.918 125.976C130.509 123.422 132.665 121.449 135.328 121.146L151.97 119.251C155.411 118.859 158.53 121.341 158.922 124.782L159.632 131.023L174.194 129.365C175.343 129.234 176.381 130.06 176.512 131.208L176.748 133.289L199.632 130.683C207.662 129.769 213.45 122.493 212.536 114.463C211.622 106.433 204.346 100.645 196.316 101.559L131.827 108.901C122.648 109.946 114.334 103.331 113.289 94.153C112.244 84.9747 118.859 76.6607 128.037 75.6158L153.001 72.7738L152.764 70.6935C152.633 69.5452 153.459 68.5071 154.608 68.3764L169.17 66.7186L168.459 60.4776C168.068 57.0368 170.549 53.9179 173.99 53.5262L190.632 51.6315C193.295 51.3284 195.84 52.7666 196.989 55.1224L205.668 54.1343C207.965 53.8728 210.041 55.5246 210.302 57.8213L212.671 78.6244ZM208.51 79.0981L206.142 58.2949L197.82 59.2423L200.189 80.0454L208.51 79.0981ZM175.462 84.9677C175.593 86.116 176.631 86.9419 177.779 86.8112L194.422 84.9165C195.57 84.7858 196.396 83.7477 196.265 82.5994L193.423 57.6356C193.292 56.4873 192.254 55.6614 191.106 55.7921L174.463 57.6868C173.315 57.8175 172.489 58.8556 172.62 60.004L175.462 84.9677ZM169.643 70.8792L157.162 72.3002L157.635 76.4608L170.117 75.0398L169.643 70.8792ZM172.588 133.762L160.106 135.183L160.58 139.344L173.061 137.923L172.588 133.762ZM136.8 152.587C136.931 153.736 137.969 154.562 139.117 154.431L155.76 152.536C156.908 152.405 157.734 151.367 157.603 150.219L154.761 125.255C154.63 124.107 153.592 123.281 152.444 123.412L135.802 125.306C134.653 125.437 133.827 126.475 133.958 127.624L136.8 152.587ZM130.034 130.178L121.713 131.125L124.081 151.928L132.403 150.981L130.034 130.178Z" fill="#585763"/>
<rect x="94.5" y="121.5" width="103.5" height="67.5" fill="white"/>
<path d="M102.15 194.1H190.65C197.85 194.1 203.85 188.25 203.85 180.9V130.2C203.85 123 198 117 190.65 117H102.15C94.95 117 88.95 122.85 88.95 130.2V180.9C88.95 188.25 94.95 194.1 102.15 194.1ZM95.1 130.2C95.1 126.3 98.25 123.15 102.15 123.15H190.65C194.55 123.15 197.7 126.3 197.7 130.2V180.9C197.7 184.8 194.55 187.95 190.65 187.95H102.15C98.25 187.95 95.1 184.8 95.1 180.9V130.2V130.2Z" fill="#4FC1EA"/>
<path d="M203.7 197.55H89.25C84.3 197.55 80.25 201.6 80.25 206.55V208.65C80.25 213.6 84.3 217.65 89.25 217.65H203.85C208.8 217.65 212.85 213.6 212.85 208.65V206.55C212.7 201.6 208.65 197.55 203.7 197.55ZM206.7 208.65C206.7 210.3 205.35 211.5 203.85 211.5H89.25C87.6 211.5 86.4 210.15 86.4 208.65V206.55C86.4 204.9 87.75 203.7 89.25 203.7H203.85C205.5 203.7 206.7 205.05 206.7 206.55V208.65Z" fill="#4FC1EA"/>
</svg>
