<svg width="277" height="65" viewBox="0 0 277 65" fill="none" xmlns="http://www.w3.org/2000/svg">
<rect width="277" height="65" fill="white"/>
<path d="M30.5 61C46.2401 61 59 48.2401 59 32.5C59 16.7599 46.2401 4 30.5 4C14.7599 4 2 16.7599 2 32.5C2 48.2401 14.7599 61 30.5 61Z" fill="#DAE5EB"/>
<mask id="mask0_3_124" style="mask-type:alpha" maskUnits="userSpaceOnUse" x="2" y="4" width="57" height="57">
<path d="M30.5 61C46.2401 61 59 48.2401 59 32.5C59 16.7599 46.2401 4 30.5 4C14.7599 4 2 16.7599 2 32.5C2 48.2401 14.7599 61 30.5 61Z" fill="#DAE5EB"/>
</mask>
<g mask="url(#mask0_3_124)">
<path d="M42.1173 30.4209C42.1138 29.2915 41.8847 28.1741 41.4437 27.1343C41.0026 26.0945 40.3584 25.1533 39.5487 24.3657C38.7391 23.5782 37.7804 22.9603 36.7288 22.5481C35.6772 22.136 34.5539 21.938 33.4248 21.9657C25.3151 21.9657 21.1313 26.9475 19.1036 35.0814L22.1459 36.3062C24.1744 30.0305 25.7277 27.7163 27.7419 26.9874V39.4618H39.1077" fill="#E8F4FA"/>
<path d="M33.4212 21.9657C25.3116 21.9657 21.1278 26.9475 19.1 35.0814L19.5717 35.2709C21.7491 28.1459 25.8915 23.8453 33.422 23.8453C34.5511 23.8176 35.6744 24.0156 36.726 24.4277C37.7775 24.8398 38.7363 25.4578 39.5459 26.2453C40.3555 27.0328 40.9997 27.9741 41.4408 29.0139C41.8819 30.0537 42.1109 31.171 42.1145 32.3005V30.4209C42.1109 29.2914 41.8819 28.174 41.4407 27.1341C40.9996 26.0943 40.3553 25.153 39.5456 24.3655C38.7359 23.578 37.7771 22.96 36.7255 22.5479C35.6738 22.1358 34.5504 21.9379 33.4212 21.9657V21.9657Z" fill="white"/>
<path d="M42.1173 30.4516C42.1178 29.3195 41.8918 28.1988 41.4526 27.1555C41.0133 26.1121 40.3697 25.1672 39.5597 24.3764C38.7496 23.5857 37.7895 22.965 36.7359 22.5509C35.6823 22.1369 34.5565 21.9379 33.4248 21.9657C25.3151 21.9657 21.1313 26.9475 19.1036 35.0814L22.1459 36.3062C24.1744 30.0305 25.7277 27.7163 27.7419 26.9874V39.4618H39.1077" stroke="#45413C" stroke-linecap="round" stroke-linejoin="round"/>
<path d="M27.7355 39.4618L25.1498 53.937H29.3607L32.4266 42.931C32.4456 42.6802 32.5586 42.4458 32.7431 42.2749C32.9275 42.1039 33.1697 42.0089 33.4212 42.0089C33.6727 42.0089 33.915 42.1039 34.0994 42.2749C34.2839 42.4458 34.3969 42.6802 34.4159 42.931L37.4796 53.9341H41.6962L39.1077 39.4618H27.7355Z" fill="#87898C"/>
<path d="M39.4454 41.355L39.1077 39.4618H27.7355L27.3971 41.355H39.4454Z" fill="#656769"/>
<path d="M27.7355 39.4618L25.1498 53.937H29.3607L32.4266 42.931C32.4456 42.6802 32.5586 42.4458 32.7431 42.2749C32.9275 42.1039 33.1697 42.0089 33.4212 42.0089C33.6727 42.0089 33.915 42.1039 34.0994 42.2749C34.2839 42.4458 34.3969 42.6802 34.4159 42.931L37.4796 53.9341H41.6962L39.1077 39.4618H27.7355Z" stroke="#45413C" stroke-linecap="round" stroke-linejoin="round"/>
<path opacity="0.15" d="M33.4505 55.7902C38.2819 55.7902 42.1985 55.2026 42.1985 54.4778C42.1985 53.7529 38.2819 53.1653 33.4505 53.1653C28.619 53.1653 24.7024 53.7529 24.7024 54.4778C24.7024 55.2026 28.619 55.7902 33.4505 55.7902Z" fill="#45413C"/>
<path d="M25.5225 54.331C25.3725 54.3324 25.2247 54.2951 25.0933 54.2227C24.962 54.1503 24.8515 54.0452 24.7727 53.9175C24.6939 53.7899 24.6494 53.6441 24.6434 53.4943C24.6374 53.3444 24.6703 53.1955 24.7387 53.062C24.9657 52.6515 25.2986 52.3094 25.7027 52.0713C26.1069 51.8332 26.5675 51.7078 27.0365 51.7083H27.474C27.943 51.708 28.4036 51.8334 28.8077 52.0715C29.2118 52.3096 29.5448 52.6516 29.7718 53.062C29.84 53.1955 29.8727 53.3444 29.8667 53.4941C29.8606 53.6439 29.816 53.7897 29.7373 53.9172C29.6585 54.0448 29.5481 54.1498 29.4169 54.2223C29.2857 54.2948 29.138 54.3322 28.9881 54.331H25.5225Z" fill="#656769" stroke="#45413C" stroke-linecap="round" stroke-linejoin="round"/>
<path d="M41.3193 54.331C41.4693 54.3322 41.617 54.2948 41.7482 54.2223C41.8794 54.1498 41.9897 54.0448 42.0685 53.9172C42.1473 53.7897 42.1919 53.6439 42.1979 53.4941C42.204 53.3444 42.1713 53.1955 42.1031 53.062C41.876 52.6516 41.5431 52.3096 41.139 52.0715C40.7349 51.8334 40.2743 51.708 39.8053 51.7083H39.3678C38.8988 51.7079 38.4382 51.8333 38.034 52.0714C37.6299 52.3095 37.297 52.6516 37.07 53.062C37.0018 53.1955 36.9691 53.3444 36.9752 53.4941C36.9812 53.6439 37.0258 53.7897 37.1046 53.9172C37.1833 54.0448 37.2937 54.1498 37.4249 54.2223C37.5561 54.2948 37.7038 54.3322 37.8537 54.331H41.3193Z" fill="#656769" stroke="#45413C" stroke-linecap="round" stroke-linejoin="round"/>
<path d="M37.9791 37.7119H27.7355V39.4618H37.9791V37.7119Z" fill="#B89558" stroke="#45413C" stroke-linecap="round" stroke-linejoin="round"/>
<path d="M27.7355 37.7119C27.7398 36.1964 27.7355 32.7886 27.7355 28.1459" stroke="#45413C" stroke-linecap="round" stroke-linejoin="round"/>
<path d="M64.2728 39.849L63.2909 39.1242C62.0131 38.176 60.07 37.3805 57.6767 36.8259C55.2833 36.2712 52.5329 35.9789 49.7296 35.9813H41.8528C39.6817 35.9828 37.564 35.7259 35.7968 35.2466L35.2881 35.1098C32.8417 34.3861 29.8602 33.9718 26.7624 33.925C21.9985 33.925 18.4776 35.0814 15.8322 36.0473C15.741 36.0806 15.668 36.1204 15.6174 36.1645C15.5669 36.2086 15.5398 36.256 15.5376 36.3041C15.5355 36.3522 15.5584 36.3999 15.605 36.4446C15.6516 36.4893 15.7209 36.5301 15.8091 36.5645L15.8937 38.2C16.0708 38.2691 18.2353 37.4576 18.4891 37.4591C18.7429 37.4606 18.988 37.4238 19.1706 37.3568C21.5128 36.4989 23.8021 35.7482 26.724 35.7482C28.8388 35.7943 30.8625 36.0908 32.5111 36.5963L33.0189 36.7334C35.5977 37.4326 38.6878 37.8074 41.8556 37.8052H49.7325C51.6538 37.8035 53.5389 38.0038 55.1792 38.384C56.8196 38.7641 58.1513 39.3093 59.0271 39.9592L60.0052 40.6847C60.5713 41.1028 61.2681 41.4934 62.0805 41.848C63.0536 41.2998 63.9272 40.727 64.6952 40.1335C64.5454 40.0409 64.4047 39.946 64.2728 39.849Z" fill="#99928A"/>
<path d="M64.2728 39.849L63.2909 39.1242C62.0131 38.176 60.07 37.3805 57.6767 36.8259C55.2833 36.2712 52.5329 35.9789 49.7296 35.9813H41.8528C39.6817 35.9828 37.564 35.7259 35.7968 35.2466L35.2881 35.1098C32.8417 34.3861 29.8602 33.9718 26.7624 33.925C21.9985 33.925 18.4776 35.0814 15.8322 36.0473C15.741 36.0806 15.668 36.1204 15.6174 36.1645C15.5669 36.2086 15.5398 36.256 15.5376 36.3041C15.5355 36.3522 15.5584 36.3999 15.605 36.4446C15.6516 36.4893 15.7209 36.5301 15.8091 36.5645L16.1192 36.6856C18.7301 35.7427 22.1665 34.6677 26.7624 34.6677C29.8611 34.7141 32.8437 35.1283 35.291 35.8521L35.7997 35.9893C37.5669 36.4686 39.6846 36.7255 41.8556 36.724H50.3852C52.7274 36.7238 55.0244 36.9688 57.0243 37.4321C59.0242 37.8954 60.6497 38.5591 61.7224 39.3504L63.4013 40.5906C63.5068 40.6687 63.622 40.7445 63.7449 40.819C64.077 40.5933 64.3938 40.364 64.6952 40.131C64.5454 40.04 64.4047 39.946 64.2728 39.849Z" fill="#82746D"/>
<path d="M64.3402 39.7642L63.3582 39.0394C62.0804 38.0912 60.1374 37.2958 57.744 36.7411C55.3507 36.1864 52.6002 35.8941 49.7969 35.8965H41.9201C39.7491 35.898 37.6313 35.6411 35.8642 35.1618L35.3554 35.025C32.909 34.3013 29.9275 33.887 26.8297 33.8402C22.0658 33.8402 18.5449 34.9966 15.8995 35.9625C15.8083 35.9958 15.7353 36.0357 15.6848 36.0797C15.6342 36.1238 15.6848 37.1313 15.6848 37.1313C15.6848 37.1313 15.7072 38.47 15.9611 38.4715C16.2149 38.473 19.0553 37.3391 19.238 37.2721C21.5801 36.4141 23.8694 35.6634 26.7913 35.6634C28.9061 35.7095 30.9298 36.0061 32.5785 36.5115L33.0863 36.6487C35.665 37.3479 38.7552 37.7226 41.923 37.7204H49.7998C51.7211 37.7187 53.6062 37.919 55.2466 38.2992C56.8869 38.6793 58.2186 39.2245 59.0944 39.8744L60.0725 40.6C60.6405 41.0179 61.3392 41.4082 62.1535 41.7625C63.1261 41.2142 63.9993 40.6414 64.7673 40.048C64.6144 39.9559 64.472 39.8613 64.3402 39.7642Z" stroke="#45413C" stroke-linecap="round" stroke-linejoin="round"/>
<path d="M22.039 37.8566L20.2115 37.4241C19.9859 37.3846 19.7805 37.2692 19.6295 37.0969C19.4785 36.9247 19.391 36.706 19.3814 36.4772L19.4142 35.5858C19.4333 35.449 19.4826 35.3181 19.5583 35.2025C19.634 35.0869 19.7344 34.9895 19.8523 34.9173C19.9701 34.8451 20.1024 34.7999 20.2398 34.7849C20.3772 34.7699 20.5162 34.7855 20.6468 34.8306L22.8121 35.3429C22.9491 35.3612 23.0803 35.4096 23.1964 35.4845C23.3124 35.5595 23.4105 35.6593 23.4835 35.7766C23.5565 35.8939 23.6026 36.0259 23.6186 36.1632C23.6346 36.3005 23.62 36.4395 23.5759 36.5705L23.2054 37.3813C23.0944 37.5817 22.9182 37.7382 22.706 37.8246C22.4939 37.9111 22.2585 37.9223 22.039 37.8566V37.8566Z" fill="#FFCEBF" stroke="#45413C" stroke-linecap="round" stroke-linejoin="round"/>
<path d="M36.4138 38.0269C36.1863 38.3631 36.1018 38.776 36.1788 39.1746C36.2558 39.5731 36.4879 39.9248 36.8242 40.1522C37.1604 40.3797 37.5733 40.4642 37.9719 40.3872C38.3704 40.3103 38.7221 40.0781 38.9496 39.7419L39.8046 38.4736L37.2681 36.7586L36.4138 38.0269Z" fill="#FFCEBF" stroke="#45413C" stroke-linecap="round" stroke-linejoin="round"/>
<path d="M38.9759 29.1797V32.9781C38.9762 33.5925 38.8092 34.1955 38.4929 34.7223L37.2709 36.76L39.8074 38.475L41.6086 35.568C41.9412 35.0316 42.1174 34.413 42.1173 33.7818V30.3091" fill="#E8F4FA"/>
<path d="M38.9759 29.1797V32.9781C38.9762 33.5925 38.8092 34.1955 38.4929 34.7223L37.2709 36.76L39.8074 38.475L41.6086 35.568C41.9412 35.0316 42.1174 34.413 42.1173 33.7818V30.3091" stroke="#45413C" stroke-linecap="round" stroke-linejoin="round"/>
<path d="M32.9118 24.8064L31.6778 34.8285L33.427 36.8327L35.1769 34.8285L33.6728 24.8064H32.9118Z" fill="#D6B300" stroke="#45413C" stroke-linecap="round" stroke-linejoin="round"/>
<path d="M34.4337 24.8064H32.1516V27.0886H34.4337V24.8064Z" fill="#FF6242" stroke="#45413C" stroke-linecap="round" stroke-linejoin="round"/>
<path d="M29.1961 22.488L30.8349 25.8495C30.9196 25.9397 31.0226 26.0109 31.137 26.0584C31.2513 26.1058 31.3744 26.1284 31.4981 26.1247C31.6219 26.121 31.7434 26.0911 31.8547 26.0369C31.966 25.9827 32.0645 25.9055 32.1437 25.8103L33.3521 24.8335L31.4797 22.2044V22.0662C30.7085 22.1459 29.9449 22.287 29.1961 22.488V22.488Z" fill="white" stroke="#45413C" stroke-linecap="round" stroke-linejoin="round"/>
<path d="M35.221 22.126V22.2094L33.3521 24.8335L34.5556 25.8089C34.6348 25.904 34.7333 25.9812 34.8446 26.0354C34.9559 26.0896 35.0774 26.1196 35.2012 26.1233C35.3249 26.127 35.448 26.1044 35.5623 26.0569C35.6767 26.0095 35.7796 25.9383 35.8644 25.8481L37.3379 22.8285C36.6651 22.505 35.9537 22.2689 35.221 22.126V22.126Z" fill="white" stroke="#45413C" stroke-linecap="round" stroke-linejoin="round"/>
<path d="M35.2203 22.2058L33.3521 24.8349L31.4797 22.2058L31.484 18.1488H35.2246L35.2203 22.2058Z" fill="#FFCEBF" stroke="#45413C" stroke-linecap="round" stroke-linejoin="round"/>
<path d="M33.2887 21.2532C34.3913 21.2637 35.4685 20.9223 36.3637 20.2787C37.259 19.6351 37.9257 18.7228 38.267 17.6743H38.2762C39.92 17.6943 40.0511 15.0965 38.5676 15.0787L38.5805 14.0391C38.5553 12.6876 38.0051 11.399 37.0462 10.4462C36.0873 9.49343 34.7952 8.95138 33.4436 8.9349C32.0919 8.91841 30.7869 9.42878 29.8051 10.3579C28.8233 11.287 28.2417 12.5618 28.1837 13.9123L28.1715 14.9518C26.6874 14.9333 26.7565 17.5339 28.3995 17.5539H28.4038C28.7191 18.6097 29.3626 19.5376 30.241 20.2028C31.1194 20.868 32.187 21.2359 33.2887 21.2532V21.2532Z" fill="#FFCEBF" stroke="#45413C" stroke-linecap="round" stroke-linejoin="round"/>
<path d="M30.7465 16.5436C30.7451 16.6463 30.7133 16.7462 30.6551 16.8308C30.5969 16.9154 30.5149 16.9809 30.4195 17.0189C30.3241 17.0569 30.2196 17.0658 30.1191 17.0445C30.0187 17.0231 29.9268 16.9724 29.8551 16.8989C29.7835 16.8253 29.7352 16.7322 29.7165 16.6312C29.6977 16.5302 29.7093 16.426 29.7498 16.3316C29.7903 16.2372 29.8579 16.157 29.944 16.101C30.0301 16.045 30.1308 16.0158 30.2335 16.017C30.3018 16.0179 30.3692 16.0322 30.432 16.0591C30.4947 16.086 30.5516 16.125 30.5992 16.1739C30.6468 16.2228 30.6844 16.2807 30.7097 16.3441C30.7349 16.4075 30.7475 16.4753 30.7465 16.5436V16.5436Z" fill="#FFB59E"/>
<path d="M36.9845 16.6191C36.9832 16.722 36.9514 16.8222 36.8932 16.907C36.835 16.9918 36.7529 17.0575 36.6573 17.0957C36.5617 17.1338 36.457 17.1428 36.3564 17.1214C36.2557 17.1 36.1637 17.0493 36.0918 16.9756C36.02 16.9019 35.9717 16.8086 35.953 16.7074C35.9342 16.6062 35.9459 16.5017 35.9866 16.4072C36.0272 16.3127 36.095 16.2323 36.1813 16.1763C36.2676 16.1203 36.3686 16.0912 36.4715 16.0926C36.5397 16.0934 36.6072 16.1077 36.6699 16.1346C36.7327 16.1615 36.7895 16.2006 36.8371 16.2495C36.8848 16.2984 36.9223 16.3562 36.9476 16.4196C36.9729 16.483 36.9854 16.5508 36.9845 16.6191V16.6191Z" fill="#FFB59E"/>
<path d="M34.6275 18.1659C34.2458 18.4274 33.7953 18.5699 33.3327 18.5755C32.8701 18.581 32.4162 18.4494 32.0283 18.1973" stroke="#45413C" stroke-linecap="round" stroke-linejoin="round"/>
<path d="M30.5541 11.8482C32.7102 13.9914 36.4095 13.7919 38.8063 13.0944C38.8977 13.0674 38.9775 13.0107 39.033 12.9333C39.0885 12.8558 39.1166 12.7621 39.1127 12.6669C39.0425 11.1798 38.3952 9.77881 37.3083 8.76153C36.2214 7.74425 34.7807 7.1909 33.2923 7.21908C31.7781 7.28725 30.3488 7.93783 29.303 9.03492C28.2571 10.132 27.6756 11.5908 27.6799 13.1065L27.6678 14.0669C27.6668 14.1381 27.6833 14.2085 27.716 14.2718C27.7486 14.3351 27.7963 14.3893 27.855 14.4298C27.9136 14.4702 27.9813 14.4956 28.052 14.5036C28.1228 14.5117 28.1944 14.5021 28.2606 14.4759C29.1028 14.1453 30.5356 13.3615 30.5541 11.8489" fill="#FFDF3D"/>
<path d="M30.5541 11.8482C32.7102 13.9914 36.4095 13.7919 38.8063 13.0944C38.8977 13.0674 38.9775 13.0107 39.033 12.9333C39.0885 12.8558 39.1166 12.7621 39.1127 12.6669C39.0425 11.1798 38.3952 9.77881 37.3083 8.76153C36.2214 7.74425 34.7807 7.1909 33.2923 7.21908C31.7781 7.28725 30.3488 7.93783 29.303 9.03492C28.2571 10.132 27.6756 11.5908 27.6799 13.1065L27.6678 14.0669C27.6668 14.1381 27.6833 14.2085 27.716 14.2718C27.7486 14.3351 27.7963 14.3893 27.855 14.4298C27.9136 14.4702 27.9813 14.4956 28.052 14.5036C28.1228 14.5117 28.1944 14.5021 28.2606 14.4759C29.1028 14.1453 30.5356 13.3615 30.5541 11.8489" stroke="#45413C" stroke-linecap="round" stroke-linejoin="round"/>
<path d="M33.2631 9.60809C34.4125 9.58623 35.5419 9.91124 36.5039 10.5408C37.4659 11.1703 38.2158 12.075 38.656 13.1371L38.8063 13.0944C38.8977 13.0674 38.9775 13.0107 39.033 12.9333C39.0885 12.8558 39.1166 12.7621 39.1127 12.6669C39.0425 11.1798 38.3952 9.77881 37.3083 8.76153C36.2214 7.74425 34.7807 7.1909 33.2923 7.21908C31.7781 7.28725 30.3488 7.93783 29.303 9.03492C28.2571 10.132 27.6756 11.5908 27.6799 13.1065L27.6678 14.0669C27.6663 14.1728 27.7039 14.2755 27.7733 14.3555C28.0149 13.0592 28.6898 11.8834 29.6872 11.0209C30.6846 10.1583 31.9455 9.6602 33.2631 9.60809V9.60809Z" fill="#FFEF9E"/>
<path d="M30.5541 11.8482C32.7102 13.9914 36.4095 13.7919 38.8063 13.0944C38.8977 13.0674 38.9775 13.0107 39.033 12.9333C39.0885 12.8558 39.1166 12.7621 39.1127 12.6669C39.0425 11.1798 38.3952 9.77881 37.3083 8.76153C36.2214 7.74425 34.7807 7.1909 33.2923 7.21908C31.7781 7.28725 30.3488 7.93783 29.303 9.03492C28.2571 10.132 27.6756 11.5908 27.6799 13.1065L27.6678 14.0669C27.6668 14.1381 27.6833 14.2085 27.716 14.2718C27.7486 14.3351 27.7963 14.3893 27.855 14.4298C27.9136 14.4702 27.9813 14.4956 28.052 14.5036C28.1228 14.5117 28.1944 14.5021 28.2606 14.4759C29.1028 14.1453 30.5356 13.3615 30.5541 11.8489" stroke="#45413C" stroke-linecap="round" stroke-linejoin="round"/>
<path d="M30.5542 11.8482C30.3542 11.6955 30.1819 11.5097 30.0447 11.2989" stroke="#45413C" stroke-linecap="round" stroke-linejoin="round"/>
<path d="M31.6215 15.8496C31.9925 15.8496 32.2934 15.5488 32.2934 15.1777C32.2934 14.8066 31.9925 14.5058 31.6215 14.5058C31.2504 14.5058 30.9496 14.8066 30.9496 15.1777C30.9496 15.5488 31.2504 15.8496 31.6215 15.8496Z" fill="#45413C"/>
<path d="M35.0835 15.8496C35.4546 15.8496 35.7554 15.5488 35.7554 15.1777C35.7554 14.8066 35.4546 14.5058 35.0835 14.5058C34.7124 14.5058 34.4116 14.8066 34.4116 15.1777C34.4116 15.5488 34.7124 15.8496 35.0835 15.8496Z" fill="#45413C"/>
</g>
<path d="M77.6847 32.9048C75.6156 32.9048 73.8388 32.4505 72.3545 31.5419C70.8791 30.6333 69.7411 29.3783 68.9404 27.777C68.1487 26.1667 67.7529 24.3134 67.7529 22.2173C67.7529 20.1122 68.1577 18.2545 68.9674 16.6442C69.7771 15.0249 70.9196 13.7654 72.395 12.8658C73.8793 11.9571 75.6336 11.5028 77.6577 11.5028C79.34 11.5028 80.8289 11.8132 82.1244 12.4339C83.4288 13.0457 84.4679 13.9138 85.2415 15.0384C86.0152 16.1539 86.456 17.4583 86.564 18.9517H81.895C81.706 17.9531 81.2562 17.121 80.5455 16.4553C79.8438 15.7805 78.9037 15.4432 77.7252 15.4432C76.7266 15.4432 75.8495 15.7131 75.0938 16.2528C74.3381 16.7836 73.7489 17.5483 73.3261 18.5469C72.9122 19.5455 72.7053 20.742 72.7053 22.1364C72.7053 23.5488 72.9122 24.7633 73.3261 25.7798C73.7399 26.7874 74.3201 27.5656 75.0668 28.1143C75.8225 28.6541 76.7086 28.924 77.7252 28.924C78.4449 28.924 79.0881 28.7891 79.6549 28.5192C80.2307 28.2403 80.712 27.84 81.0988 27.3182C81.4856 26.7964 81.751 26.1622 81.895 25.4155H86.564C86.447 26.8819 86.0152 28.1818 85.2685 29.3153C84.5218 30.4399 83.5053 31.3215 82.2188 31.9602C80.9324 32.59 79.421 32.9048 77.6847 32.9048ZM97.7164 32.9048C95.6922 32.9048 93.938 32.4595 92.4536 31.5689C90.9692 30.6783 89.8177 29.4323 88.999 27.831C88.1894 26.2296 87.7845 24.3584 87.7845 22.2173C87.7845 20.0762 88.1894 18.2005 88.999 16.5902C89.8177 14.9799 90.9692 13.7294 92.4536 12.8388C93.938 11.9482 95.6922 11.5028 97.7164 11.5028C99.7405 11.5028 101.495 11.9482 102.979 12.8388C104.464 13.7294 105.611 14.9799 106.42 16.5902C107.239 18.2005 107.648 20.0762 107.648 22.2173C107.648 24.3584 107.239 26.2296 106.42 27.831C105.611 29.4323 104.464 30.6783 102.979 31.5689C101.495 32.4595 99.7405 32.9048 97.7164 32.9048ZM97.7434 28.9915C98.8409 28.9915 99.7585 28.6901 100.496 28.0874C101.234 27.4756 101.783 26.657 102.143 25.6314C102.511 24.6058 102.696 23.4633 102.696 22.2038C102.696 20.9354 102.511 19.7884 102.143 18.7628C101.783 17.7282 101.234 16.9051 100.496 16.2933C99.7585 15.6816 98.8409 15.3757 97.7434 15.3757C96.6188 15.3757 95.6832 15.6816 94.9365 16.2933C94.1988 16.9051 93.6456 17.7282 93.2767 18.7628C92.9169 19.7884 92.737 20.9354 92.737 22.2038C92.737 23.4633 92.9169 24.6058 93.2767 25.6314C93.6456 26.657 94.1988 27.4756 94.9365 28.0874C95.6832 28.6901 96.6188 28.9915 97.7434 28.9915ZM109.894 32.5V11.7727H114.631V15.2273H114.847C115.225 14.0308 115.872 13.1087 116.79 12.4609C117.717 11.8042 118.774 11.4759 119.961 11.4759C120.231 11.4759 120.532 11.4893 120.865 11.5163C121.207 11.5343 121.49 11.5658 121.715 11.6108V16.1044C121.508 16.0324 121.18 15.9695 120.73 15.9155C120.289 15.8525 119.862 15.821 119.448 15.821C118.558 15.821 117.757 16.0144 117.046 16.4013C116.345 16.7791 115.791 17.3054 115.387 17.9801C114.982 18.6548 114.779 19.433 114.779 20.3146V32.5H109.894ZM128.654 32.9183C127.341 32.9183 126.158 32.6844 125.105 32.2166C124.062 31.7398 123.234 31.0381 122.622 30.1115C122.019 29.1849 121.718 28.0424 121.718 26.6839C121.718 25.5144 121.934 24.5473 122.366 23.7827C122.798 23.018 123.387 22.4062 124.134 21.9474C124.88 21.4886 125.721 21.1423 126.657 20.9084C127.602 20.6655 128.578 20.4901 129.585 20.3821C130.8 20.2562 131.785 20.1437 132.54 20.0447C133.296 19.9368 133.845 19.7749 134.187 19.5589C134.538 19.334 134.713 18.9877 134.713 18.5199V18.4389C134.713 17.4223 134.412 16.6352 133.809 16.0774C133.206 15.5196 132.338 15.2408 131.205 15.2408C130.008 15.2408 129.059 15.5017 128.357 16.0234C127.665 16.5452 127.197 17.1615 126.954 17.8722L122.393 17.2244C122.753 15.965 123.346 14.9124 124.174 14.0668C125.002 13.2121 126.014 12.5734 127.21 12.1506C128.407 11.7188 129.729 11.5028 131.178 11.5028C132.176 11.5028 133.17 11.6198 134.16 11.8537C135.149 12.0876 136.054 12.4744 136.872 13.0142C137.691 13.545 138.348 14.2692 138.842 15.1868C139.346 16.1044 139.598 17.2514 139.598 18.6278V32.5H134.902V29.6527H134.74C134.443 30.2285 134.025 30.7682 133.485 31.272C132.954 31.7668 132.284 32.1671 131.474 32.473C130.674 32.7699 129.734 32.9183 128.654 32.9183ZM129.923 29.3288C130.903 29.3288 131.753 29.1354 132.473 28.7486C133.193 28.3527 133.746 27.831 134.133 27.1832C134.529 26.5355 134.727 25.8293 134.727 25.0646V22.6222C134.574 22.7481 134.313 22.8651 133.944 22.973C133.584 23.081 133.179 23.1754 132.729 23.2564C132.28 23.3374 131.834 23.4093 131.393 23.4723C130.953 23.5353 130.57 23.5893 130.246 23.6342C129.518 23.7332 128.866 23.8951 128.29 24.12C127.714 24.3449 127.26 24.6598 126.927 25.0646C126.594 25.4605 126.428 25.9732 126.428 26.603C126.428 27.5026 126.756 28.1818 127.413 28.6406C128.069 29.0994 128.906 29.3288 129.923 29.3288Z" fill="#132934"/>
<path d="M106.11 31.8636V59.5H101.657L88.6347 40.6754H88.4053V59.5H83.3989V31.8636H87.879L100.888 50.7017H101.13V31.8636H106.11ZM118.625 59.9048C116.547 59.9048 114.752 59.473 113.241 58.6094C111.739 57.7367 110.583 56.5043 109.773 54.9119C108.963 53.3106 108.558 51.4259 108.558 49.2578C108.558 47.1257 108.963 45.2545 109.773 43.6442C110.592 42.0249 111.734 40.7654 113.2 39.8658C114.667 38.9571 116.39 38.5028 118.369 38.5028C119.646 38.5028 120.852 38.7098 121.985 39.1236C123.128 39.5284 124.135 40.1581 125.008 41.0128C125.89 41.8674 126.582 42.956 127.086 44.2784C127.59 45.5919 127.842 47.1572 127.842 48.9744V50.4723H110.852V47.1797H123.159C123.15 46.2441 122.948 45.4119 122.552 44.6832C122.156 43.9455 121.603 43.3653 120.892 42.9425C120.19 42.5196 119.372 42.3082 118.436 42.3082C117.438 42.3082 116.561 42.5511 115.805 43.0369C115.049 43.5137 114.46 44.1435 114.037 44.9261C113.623 45.6998 113.412 46.55 113.403 47.4766V50.3509C113.403 51.5563 113.623 52.5909 114.064 53.4545C114.505 54.3092 115.121 54.9659 115.913 55.4247C116.704 55.8745 117.631 56.0994 118.693 56.0994C119.403 56.0994 120.047 56.0005 120.622 55.8026C121.198 55.5956 121.697 55.2943 122.12 54.8984C122.543 54.5026 122.862 54.0123 123.078 53.4276L127.639 53.9403C127.351 55.1458 126.803 56.1984 125.993 57.098C125.192 57.9886 124.167 58.6813 122.916 59.1761C121.666 59.6619 120.235 59.9048 118.625 59.9048ZM140.425 38.7727V42.5511H128.509V38.7727H140.425ZM131.451 33.8068H136.336V53.2656C136.336 53.9223 136.435 54.4261 136.633 54.777C136.84 55.1188 137.109 55.3527 137.442 55.4787C137.775 55.6046 138.144 55.6676 138.549 55.6676C138.855 55.6676 139.134 55.6451 139.385 55.6001C139.646 55.5552 139.844 55.5147 139.979 55.4787L140.802 59.2976C140.541 59.3875 140.168 59.4865 139.682 59.5945C139.206 59.7024 138.621 59.7654 137.928 59.7834C136.705 59.8194 135.603 59.6349 134.622 59.2301C133.641 58.8163 132.863 58.1776 132.287 57.3139C131.721 56.4503 131.442 55.3707 131.451 54.0753V33.8068Z" fill="#336C88"/>
<line x1="150.5" y1="52.5" x2="150.5" y2="12.5" stroke="#336C88"/>
<path d="M161.826 14.2273L166.838 28.2994H166.942L171.953 14.2273H172.938L167.427 29.5H166.353L160.842 14.2273H161.826ZM181.964 25.4357V18.0455H182.874V29.5H181.964V27.6431H181.889C181.621 28.2347 181.186 28.717 180.584 29.0898C179.988 29.4627 179.282 29.6491 178.466 29.6491C177.716 29.6491 177.052 29.4851 176.475 29.157C175.898 28.8288 175.446 28.364 175.118 27.7624C174.79 27.1559 174.626 26.435 174.626 25.5998V18.0455H175.536V25.5625C175.536 26.517 175.824 27.2901 176.401 27.8817C176.982 28.4684 177.733 28.7617 178.653 28.7617C179.249 28.7617 179.799 28.6275 180.301 28.359C180.803 28.0906 181.206 27.7077 181.509 27.2106C181.812 26.7085 181.964 26.1168 181.964 25.4357ZM190.27 29.7386C189.236 29.7386 188.336 29.4826 187.571 28.9705C186.805 28.4585 186.213 27.7575 185.796 26.8675C185.378 25.9776 185.169 24.9634 185.169 23.8249C185.169 22.6815 185.378 21.6623 185.796 20.7674C186.218 19.8725 186.798 19.1665 187.533 18.6495C188.269 18.1325 189.109 17.8739 190.054 17.8739C190.695 17.8739 191.302 18.0032 191.874 18.2617C192.45 18.5153 192.957 18.8832 193.395 19.3654C193.837 19.8477 194.183 20.4293 194.432 21.1104C194.685 21.7915 194.812 22.5572 194.812 23.4073V23.9741H185.744V23.1463H193.902C193.902 22.3161 193.733 21.5678 193.395 20.9016C193.057 20.2354 192.597 19.706 192.015 19.3132C191.434 18.9205 190.78 18.7241 190.054 18.7241C189.293 18.7241 188.615 18.9379 188.018 19.3654C187.427 19.788 186.957 20.3597 186.609 21.0806C186.266 21.8015 186.087 22.6069 186.072 23.4968V23.8697C186.072 24.8242 186.238 25.6818 186.571 26.4425C186.91 27.1982 187.392 27.7972 188.018 28.2397C188.645 28.6772 189.395 28.896 190.27 28.896C190.897 28.896 191.431 28.7915 191.874 28.5827C192.321 28.369 192.686 28.1104 192.97 27.8072C193.253 27.5039 193.467 27.2106 193.611 26.9272L194.439 27.2628C194.265 27.6456 193.994 28.0284 193.626 28.4112C193.263 28.7891 192.801 29.1048 192.239 29.3583C191.682 29.6119 191.026 29.7386 190.27 29.7386ZM198.014 14.2273V29.5H197.104V14.2273H198.014ZM209.314 18.0455L205.176 29.5H204.146L200.008 18.0455H200.984L204.624 28.3292H204.698L208.337 18.0455H209.314ZM215.374 29.7386C214.34 29.7386 213.44 29.4826 212.675 28.9705C211.909 28.4585 211.318 27.7575 210.9 26.8675C210.482 25.9776 210.273 24.9634 210.273 23.8249C210.273 22.6815 210.482 21.6623 210.9 20.7674C211.322 19.8725 211.902 19.1665 212.637 18.6495C213.373 18.1325 214.213 17.8739 215.158 17.8739C215.799 17.8739 216.406 18.0032 216.978 18.2617C217.554 18.5153 218.061 18.8832 218.499 19.3654C218.941 19.8477 219.287 20.4293 219.536 21.1104C219.789 21.7915 219.916 22.5572 219.916 23.4073V23.9741H210.848V23.1463H219.006C219.006 22.3161 218.837 21.5678 218.499 20.9016C218.161 20.2354 217.701 19.706 217.119 19.3132C216.538 18.9205 215.884 18.7241 215.158 18.7241C214.397 18.7241 213.719 18.9379 213.122 19.3654C212.531 19.788 212.061 20.3597 211.713 21.0806C211.37 21.8015 211.191 22.6069 211.176 23.4968V23.8697C211.176 24.8242 211.342 25.6818 211.675 26.4425C212.014 27.1982 212.496 27.7972 213.122 28.2397C213.749 28.6772 214.499 28.896 215.374 28.896C216.001 28.896 216.535 28.7915 216.978 28.5827C217.425 28.369 217.791 28.1104 218.074 27.8072C218.357 27.5039 218.571 27.2106 218.715 26.9272L219.543 27.2628C219.369 27.6456 219.098 28.0284 218.73 28.4112C218.367 28.7891 217.905 29.1048 217.343 29.3583C216.786 29.6119 216.13 29.7386 215.374 29.7386ZM231.741 29.7386C230.707 29.7386 229.807 29.4826 229.042 28.9705C228.276 28.4585 227.684 27.7575 227.267 26.8675C226.849 25.9776 226.64 24.9634 226.64 23.8249C226.64 22.6815 226.849 21.6623 227.267 20.7674C227.689 19.8725 228.269 19.1665 229.004 18.6495C229.74 18.1325 230.58 17.8739 231.525 17.8739C232.166 17.8739 232.773 18.0032 233.345 18.2617C233.921 18.5153 234.428 18.8832 234.866 19.3654C235.308 19.8477 235.654 20.4293 235.902 21.1104C236.156 21.7915 236.283 22.5572 236.283 23.4073V23.9741H227.215V23.1463H235.373C235.373 22.3161 235.204 21.5678 234.866 20.9016C234.528 20.2354 234.068 19.706 233.486 19.3132C232.905 18.9205 232.251 18.7241 231.525 18.7241C230.764 18.7241 230.086 18.9379 229.489 19.3654C228.897 19.788 228.428 20.3597 228.08 21.0806C227.737 21.8015 227.558 22.6069 227.543 23.4968V23.8697C227.543 24.8242 227.709 25.6818 228.042 26.4425C228.38 27.1982 228.863 27.7972 229.489 28.2397C230.115 28.6772 230.866 28.896 231.741 28.896C232.368 28.896 232.902 28.7915 233.345 28.5827C233.792 28.369 234.157 28.1104 234.441 27.8072C234.724 27.5039 234.938 27.2106 235.082 26.9272L235.91 27.2628C235.736 27.6456 235.465 28.0284 235.097 28.4112C234.734 28.7891 234.272 29.1048 233.71 29.3583C233.153 29.6119 232.497 29.7386 231.741 29.7386ZM239.485 14.2273V29.5H238.575V14.2273H239.485ZM247.477 33.7955V18.0455H248.364V20.6033H248.476C248.655 20.1112 248.906 19.6587 249.229 19.2461C249.557 18.8335 249.963 18.5028 250.445 18.2543C250.932 18.0007 251.504 17.8739 252.16 17.8739C253.085 17.8739 253.89 18.1275 254.576 18.6346C255.262 19.1417 255.794 19.8427 256.172 20.7376C256.55 21.6275 256.739 22.6491 256.739 23.8026C256.739 24.956 256.548 25.9801 256.165 26.875C255.787 27.7649 255.255 28.4659 254.569 28.978C253.888 29.4851 253.09 29.7386 252.175 29.7386C251.524 29.7386 250.952 29.6143 250.46 29.3658C249.973 29.1172 249.562 28.7866 249.229 28.3739C248.901 27.9563 248.65 27.4989 248.476 27.0018H248.387V33.7955H247.477ZM248.372 23.7951C248.372 24.7695 248.521 25.642 248.819 26.4126C249.118 27.1783 249.545 27.7848 250.102 28.2322C250.659 28.6747 251.322 28.896 252.093 28.896C252.874 28.896 253.542 28.6722 254.099 28.2248C254.661 27.7724 255.088 27.1609 255.382 26.3903C255.68 25.6197 255.829 24.7546 255.829 23.7951C255.829 22.8356 255.682 21.973 255.389 21.2074C255.096 20.4418 254.671 19.8377 254.114 19.3952C253.557 18.9478 252.883 18.7241 252.093 18.7241C251.312 18.7241 250.644 18.9453 250.087 19.3878C249.535 19.8253 249.11 20.4268 248.812 21.1925C248.518 21.9531 248.372 22.8207 248.372 23.7951ZM262.079 29.7461C261.418 29.7461 260.812 29.6143 260.26 29.3509C259.713 29.0874 259.273 28.7021 258.94 28.195C258.612 27.6879 258.448 27.0714 258.448 26.3455C258.448 25.8683 258.532 25.4482 258.701 25.0852C258.87 24.7223 259.131 24.4091 259.484 24.1456C259.837 23.8821 260.289 23.6658 260.841 23.4968C261.393 23.3228 262.052 23.1886 262.818 23.0941C263.399 23.0245 263.919 22.9574 264.376 22.8928C264.834 22.8232 265.191 22.7163 265.45 22.5721C265.713 22.4279 265.845 22.2092 265.845 21.9158V21.4386C265.845 20.6033 265.582 19.9396 265.055 19.4474C264.528 18.9553 263.802 18.7092 262.877 18.7092C262.057 18.7092 261.366 18.8906 260.804 19.2536C260.247 19.6115 259.857 20.0739 259.633 20.6406L258.776 20.32C258.994 19.7731 259.31 19.3182 259.723 18.9553C260.14 18.5923 260.618 18.3214 261.155 18.1424C261.696 17.9634 262.263 17.8739 262.855 17.8739C263.367 17.8739 263.854 17.946 264.316 18.0902C264.784 18.2344 265.199 18.4531 265.562 18.7464C265.93 19.0398 266.221 19.4151 266.434 19.8725C266.648 20.3249 266.755 20.8668 266.755 21.4982V29.5H265.845V27.4343H265.778C265.579 27.8619 265.306 28.2521 264.958 28.6051C264.615 28.9531 264.2 29.2315 263.712 29.4403C263.23 29.6442 262.686 29.7461 262.079 29.7461ZM262.169 28.9034C262.885 28.9034 263.519 28.7294 264.07 28.3814C264.627 28.0284 265.062 27.5462 265.375 26.9347C265.689 26.3232 265.845 25.6296 265.845 24.854V23.1687C265.731 23.2681 265.564 23.3576 265.346 23.4371C265.132 23.5117 264.888 23.5788 264.615 23.6385C264.346 23.6932 264.063 23.7429 263.765 23.7876C263.471 23.8274 263.185 23.8647 262.907 23.8995C262.072 23.9989 261.391 24.1531 260.864 24.3619C260.342 24.5657 259.959 24.8342 259.715 25.1673C259.477 25.5004 259.357 25.9031 259.357 26.3754C259.357 27.1559 259.626 27.7724 260.163 28.2248C260.7 28.6772 261.368 28.9034 262.169 28.9034ZM269.729 29.5V18.0455H270.617V19.8352H270.699C270.948 19.2486 271.368 18.7788 271.959 18.4258C272.551 18.0678 273.225 17.8888 273.98 17.8888C274.06 17.8888 274.139 17.8888 274.219 17.8888C274.298 17.8888 274.373 17.8913 274.443 17.8963V18.8136C274.383 18.8086 274.311 18.8011 274.226 18.7912C274.147 18.7763 274.047 18.7688 273.928 18.7688C273.292 18.7688 272.725 18.9055 272.228 19.179C271.736 19.4524 271.348 19.8303 271.064 20.3125C270.781 20.7898 270.639 21.3366 270.639 21.9531V29.5H269.729ZM200.338 50.7386C199.419 50.7386 198.616 50.4851 197.93 49.978C197.244 49.4709 196.712 48.7724 196.334 47.8825C195.961 46.9876 195.774 45.9609 195.774 44.8026C195.774 43.6541 195.963 42.6349 196.341 41.745C196.724 40.8501 197.258 40.1491 197.945 39.642C198.631 39.13 199.431 38.8739 200.346 38.8739C201.002 38.8739 201.571 39.0007 202.054 39.2543C202.541 39.5028 202.948 39.8335 203.277 40.2461C203.61 40.6587 203.863 41.1112 204.037 41.6033H204.127V35.2273H205.029V50.5H204.149V48.0018H204.037C203.853 48.494 203.597 48.9489 203.269 49.3665C202.941 49.7791 202.533 50.1122 202.046 50.3658C201.559 50.6143 200.99 50.7386 200.338 50.7386ZM200.42 49.896C201.196 49.896 201.86 49.6747 202.412 49.2322C202.968 48.7848 203.393 48.1783 203.687 47.4126C203.985 46.642 204.134 45.7695 204.134 44.7951C204.134 43.8207 203.985 42.9531 203.687 42.1925C203.393 41.4268 202.968 40.8253 202.412 40.3878C201.86 39.9453 201.196 39.7241 200.42 39.7241C199.635 39.7241 198.961 39.9478 198.399 40.3952C197.843 40.8377 197.415 41.4418 197.117 42.2074C196.823 42.973 196.677 43.8356 196.677 44.7951C196.677 45.7546 196.823 46.6197 197.117 47.3903C197.415 48.1609 197.843 48.7724 198.399 49.2248C198.961 49.6722 199.635 49.896 200.42 49.896ZM212.75 50.7386C211.716 50.7386 210.816 50.4826 210.051 49.9705C209.285 49.4585 208.693 48.7575 208.276 47.8675C207.858 46.9776 207.649 45.9634 207.649 44.8249C207.649 43.6815 207.858 42.6623 208.276 41.7674C208.698 40.8725 209.277 40.1665 210.013 39.6495C210.749 39.1325 211.589 38.8739 212.534 38.8739C213.175 38.8739 213.782 39.0032 214.353 39.2617C214.93 39.5153 215.437 39.8832 215.875 40.3654C216.317 40.8477 216.663 41.4293 216.911 42.1104C217.165 42.7915 217.292 43.5572 217.292 44.4073V44.9741H208.224V44.1463H216.382C216.382 43.3161 216.213 42.5678 215.875 41.9016C215.537 41.2354 215.077 40.706 214.495 40.3132C213.913 39.9205 213.26 39.7241 212.534 39.7241C211.773 39.7241 211.095 39.9379 210.498 40.3654C209.906 40.788 209.437 41.3597 209.089 42.0806C208.746 42.8015 208.567 43.6069 208.552 44.4968V44.8697C208.552 45.8242 208.718 46.6818 209.051 47.4425C209.389 48.1982 209.872 48.7972 210.498 49.2397C211.124 49.6772 211.875 49.896 212.75 49.896C213.377 49.896 213.911 49.7915 214.353 49.5827C214.801 49.369 215.166 49.1104 215.45 48.8072C215.733 48.5039 215.947 48.2106 216.091 47.9272L216.919 48.2628C216.745 48.6456 216.474 49.0284 216.106 49.4112C215.743 49.7891 215.281 50.1048 214.719 50.3583C214.162 50.6119 213.506 50.7386 212.75 50.7386ZM228.945 50.7386C227.971 50.7386 227.113 50.4826 226.373 49.9705C225.632 49.4535 225.053 48.7475 224.635 47.8526C224.222 46.9577 224.016 45.9435 224.016 44.81C224.016 43.6765 224.225 42.6623 224.643 41.7674C225.06 40.8725 225.639 40.1665 226.38 39.6495C227.121 39.1325 227.974 38.8739 228.938 38.8739C229.664 38.8739 230.325 39.0231 230.922 39.3214C231.523 39.6197 232.02 40.0348 232.413 40.5668C232.811 41.0987 233.064 41.7152 233.174 42.4162H232.249C232.1 41.6406 231.727 40.9993 231.131 40.4922C230.539 39.9801 229.811 39.7241 228.945 39.7241C228.17 39.7241 227.479 39.9428 226.872 40.3803C226.266 40.8129 225.789 41.4119 225.441 42.1776C225.093 42.9382 224.919 43.8107 224.919 44.7951C224.919 45.7646 225.088 46.6346 225.426 47.4052C225.764 48.1708 226.236 48.7773 226.843 49.2248C227.449 49.6722 228.15 49.896 228.945 49.896C229.507 49.896 230.019 49.7841 230.482 49.5604C230.949 49.3366 231.339 49.0185 231.653 48.6058C231.966 48.1932 232.172 47.7109 232.271 47.1591H233.196C233.087 47.8651 232.838 48.4865 232.45 49.0234C232.063 49.5604 231.568 49.9805 230.966 50.2837C230.365 50.587 229.691 50.7386 228.945 50.7386ZM239.717 50.7386C238.772 50.7386 237.932 50.4851 237.196 49.978C236.46 49.4659 235.881 48.7624 235.458 47.8675C235.036 46.9727 234.825 45.9535 234.825 44.81C234.825 43.6616 235.036 42.6424 235.458 41.7525C235.881 40.8576 236.46 40.1541 237.196 39.642C237.932 39.13 238.772 38.8739 239.717 38.8739C240.661 38.8739 241.501 39.13 242.237 39.642C242.973 40.1541 243.552 40.8576 243.975 41.7525C244.397 42.6474 244.609 43.6665 244.609 44.81C244.609 45.9535 244.397 46.9727 243.975 47.8675C243.552 48.7624 242.973 49.4659 242.237 49.978C241.501 50.4851 240.661 50.7386 239.717 50.7386ZM239.717 49.896C240.517 49.896 241.216 49.6697 241.812 49.2173C242.414 48.7649 242.879 48.1534 243.207 47.3828C243.54 46.6122 243.706 45.7546 243.706 44.81C243.706 43.8654 243.54 43.0103 243.207 42.2447C242.874 41.4741 242.409 40.8626 241.812 40.4102C241.216 39.9528 240.517 39.7241 239.717 39.7241C238.916 39.7241 238.218 39.9528 237.621 40.4102C237.025 40.8626 236.56 41.4741 236.227 42.2447C235.893 43.0103 235.727 43.8654 235.727 44.81C235.727 45.7546 235.891 46.6122 236.219 47.3828C236.552 48.1534 237.017 48.7649 237.614 49.2173C238.215 49.6697 238.916 49.896 239.717 49.896ZM247.223 50.5V35.2273H248.126V41.6033H248.215C248.394 41.1112 248.648 40.6587 248.976 40.2461C249.304 39.8335 249.712 39.5028 250.199 39.2543C250.686 39.0007 251.255 38.8739 251.907 38.8739C252.826 38.8739 253.629 39.13 254.315 39.642C255.001 40.1491 255.533 40.8501 255.911 41.745C256.289 42.6349 256.478 43.6541 256.478 44.8026C256.478 45.9609 256.289 46.9876 255.911 47.8825C255.533 48.7724 255.004 49.4709 254.323 49.978C253.642 50.4851 252.839 50.7386 251.914 50.7386C251.263 50.7386 250.693 50.6143 250.206 50.3658C249.719 50.1122 249.311 49.7791 248.983 49.3665C248.655 48.9489 248.399 48.494 248.215 48.0018H248.111V50.5H247.223ZM248.118 44.7951C248.118 45.7695 248.265 46.642 248.558 47.4126C248.856 48.1783 249.284 48.7848 249.841 49.2322C250.398 49.6747 251.064 49.896 251.839 49.896C252.625 49.896 253.296 49.6722 253.853 49.2248C254.41 48.7724 254.835 48.1609 255.128 47.3903C255.426 46.6197 255.576 45.7546 255.576 44.7951C255.576 43.8356 255.426 42.973 255.128 42.2074C254.835 41.4418 254.41 40.8377 253.853 40.3952C253.296 39.9478 252.625 39.7241 251.839 39.7241C251.064 39.7241 250.398 39.9453 249.841 40.3878C249.284 40.8253 248.856 41.4268 248.558 42.1925C248.265 42.9531 248.118 43.8207 248.118 44.7951ZM258.777 50.5V39.0455H259.665V40.8352H259.747C259.996 40.2486 260.416 39.7788 261.007 39.4258C261.599 39.0678 262.273 38.8888 263.028 38.8888C263.108 38.8888 263.187 38.8888 263.267 38.8888C263.346 38.8888 263.421 38.8913 263.491 38.8963V39.8136C263.431 39.8086 263.359 39.8011 263.274 39.7912C263.195 39.7763 263.095 39.7688 262.976 39.7688C262.34 39.7688 261.773 39.9055 261.276 40.179C260.784 40.4524 260.396 40.8303 260.112 41.3125C259.829 41.7898 259.687 42.3366 259.687 42.9531V50.5H258.777ZM269.213 50.7386C268.179 50.7386 267.279 50.4826 266.513 49.9705C265.748 49.4585 265.156 48.7575 264.739 47.8675C264.321 46.9776 264.112 45.9634 264.112 44.8249C264.112 43.6815 264.321 42.6623 264.739 41.7674C265.161 40.8725 265.74 40.1665 266.476 39.6495C267.212 39.1325 268.052 38.8739 268.997 38.8739C269.638 38.8739 270.245 39.0032 270.816 39.2617C271.393 39.5153 271.9 39.8832 272.338 40.3654C272.78 40.8477 273.126 41.4293 273.374 42.1104C273.628 42.7915 273.755 43.5572 273.755 44.4073V44.9741H264.686V44.1463H272.845C272.845 43.3161 272.676 42.5678 272.338 41.9016C272 41.2354 271.54 40.706 270.958 40.3132C270.376 39.9205 269.723 39.7241 268.997 39.7241C268.236 39.7241 267.558 39.9379 266.961 40.3654C266.369 40.788 265.9 41.3597 265.551 42.0806C265.208 42.8015 265.029 43.6069 265.015 44.4968V44.8697C265.015 45.8242 265.181 46.6818 265.514 47.4425C265.852 48.1982 266.335 48.7972 266.961 49.2397C267.587 49.6772 268.338 49.896 269.213 49.896C269.839 49.896 270.374 49.7915 270.816 49.5827C271.264 49.369 271.629 49.1104 271.913 48.8072C272.196 48.5039 272.41 48.2106 272.554 47.9272L273.382 48.2628C273.208 48.6456 272.937 49.0284 272.569 49.4112C272.206 49.7891 271.744 50.1048 271.182 50.3583C270.625 50.6119 269.969 50.7386 269.213 50.7386Z" fill="#336C88"/>
</svg>
