<svg width="144" height="65" viewBox="0 0 144 65" fill="none" xmlns="http://www.w3.org/2000/svg">
<rect width="144" height="65" fill="#444F60"/>
<path d="M30.5 61C46.2401 61 59 48.2401 59 32.5C59 16.7599 46.2401 4 30.5 4C14.7599 4 2 16.7599 2 32.5C2 48.2401 14.7599 61 30.5 61Z" fill="#DAE5EB"/>
<mask id="mask0_8_901" style="mask-type:alpha" maskUnits="userSpaceOnUse" x="2" y="4" width="57" height="57">
<path d="M30.5 61C46.2401 61 59 48.2401 59 32.5C59 16.7599 46.2401 4 30.5 4C14.7599 4 2 16.7599 2 32.5C2 48.2401 14.7599 61 30.5 61Z" fill="#DAE5EB"/>
</mask>
<g mask="url(#mask0_8_901)">
<path d="M42.1173 30.4209C42.1138 29.2915 41.8848 28.1741 41.4437 27.1343C41.0026 26.0945 40.3584 25.1533 39.5488 24.3657C38.7391 23.5782 37.7804 22.9603 36.7288 22.5481C35.6772 22.136 34.5539 21.938 33.4248 21.9657C25.3152 21.9657 21.1314 26.9475 19.1036 35.0814L22.1459 36.3062C24.1744 30.0305 25.7277 27.7163 27.7419 26.9874V39.4618H39.1077" fill="#E8F4FA"/>
<path d="M33.4213 21.9657C25.3116 21.9657 21.1278 26.9475 19.1 35.0814L19.5717 35.2709C21.7491 28.1459 25.8916 23.8453 33.422 23.8453C34.5511 23.8176 35.6744 24.0156 36.726 24.4277C37.7776 24.8398 38.7363 25.4578 39.5459 26.2453C40.3555 27.0328 40.9998 27.9741 41.4408 29.0139C41.8819 30.0537 42.1109 31.171 42.1145 32.3005V30.4209C42.1109 29.2914 41.8819 28.174 41.4408 27.1341C40.9996 26.0943 40.3553 25.153 39.5456 24.3655C38.7359 23.578 37.7771 22.96 36.7255 22.5479C35.6738 22.1358 34.5504 21.9379 33.4213 21.9657V21.9657Z" fill="white"/>
<path d="M42.1173 30.4516C42.1179 29.3195 41.8918 28.1988 41.4526 27.1555C41.0133 26.1121 40.3697 25.1672 39.5597 24.3764C38.7497 23.5857 37.7896 22.965 36.7359 22.5509C35.6823 22.1369 34.5565 21.9379 33.4248 21.9657C25.3152 21.9657 21.1314 26.9475 19.1036 35.0814L22.1459 36.3062C24.1744 30.0305 25.7277 27.7163 27.7419 26.9874V39.4618H39.1077" stroke="#45413C" stroke-linecap="round" stroke-linejoin="round"/>
<path d="M27.7355 39.4618L25.1498 53.937H29.3607L32.4266 42.931C32.4456 42.6802 32.5586 42.4458 32.7431 42.2749C32.9275 42.1039 33.1697 42.0089 33.4213 42.0089C33.6728 42.0089 33.915 42.1039 34.0994 42.2749C34.2839 42.4458 34.3969 42.6802 34.4159 42.931L37.4797 53.9341H41.6962L39.1077 39.4618H27.7355Z" fill="#87898C"/>
<path d="M39.4454 41.355L39.1077 39.4618H27.7355L27.3971 41.355H39.4454Z" fill="#656769"/>
<path d="M27.7355 39.4618L25.1498 53.937H29.3607L32.4266 42.931C32.4456 42.6802 32.5586 42.4458 32.7431 42.2749C32.9275 42.1039 33.1697 42.0089 33.4213 42.0089C33.6728 42.0089 33.915 42.1039 34.0994 42.2749C34.2839 42.4458 34.3969 42.6802 34.4159 42.931L37.4797 53.9341H41.6962L39.1077 39.4618H27.7355Z" stroke="#45413C" stroke-linecap="round" stroke-linejoin="round"/>
<path opacity="0.15" d="M33.4505 55.7902C38.2819 55.7902 42.1985 55.2026 42.1985 54.4778C42.1985 53.7529 38.2819 53.1653 33.4505 53.1653C28.619 53.1653 24.7024 53.7529 24.7024 54.4778C24.7024 55.2026 28.619 55.7902 33.4505 55.7902Z" fill="#45413C"/>
<path d="M25.5225 54.331C25.3725 54.3324 25.2247 54.2951 25.0933 54.2227C24.962 54.1503 24.8516 54.0452 24.7727 53.9175C24.6939 53.7899 24.6494 53.6441 24.6434 53.4943C24.6375 53.3444 24.6703 53.1955 24.7387 53.062C24.9657 52.6515 25.2986 52.3094 25.7027 52.0713C26.1069 51.8332 26.5675 51.7078 27.0365 51.7083H27.474C27.9431 51.708 28.4036 51.8334 28.8077 52.0715C29.2118 52.3096 29.5448 52.6516 29.7718 53.062C29.8401 53.1955 29.8727 53.3444 29.8667 53.4941C29.8606 53.6439 29.816 53.7897 29.7373 53.9172C29.6585 54.0448 29.5482 54.1498 29.4169 54.2223C29.2857 54.2948 29.138 54.3322 28.9881 54.331H25.5225Z" fill="#656769" stroke="#45413C" stroke-linecap="round" stroke-linejoin="round"/>
<path d="M41.3194 54.331C41.4693 54.3322 41.617 54.2948 41.7482 54.2223C41.8794 54.1498 41.9898 54.0448 42.0685 53.9172C42.1473 53.7897 42.1919 53.6439 42.1979 53.4941C42.204 53.3444 42.1713 53.1955 42.1031 53.062C41.876 52.6516 41.5431 52.3096 41.139 52.0715C40.7349 51.8334 40.2743 51.708 39.8053 51.7083H39.3678C38.8988 51.7079 38.4382 51.8333 38.0341 52.0714C37.6299 52.3095 37.297 52.6516 37.07 53.062C37.0018 53.1955 36.9691 53.3444 36.9752 53.4941C36.9812 53.6439 37.0258 53.7897 37.1046 53.9172C37.1834 54.0448 37.2937 54.1498 37.4249 54.2223C37.5561 54.2948 37.7038 54.3322 37.8538 54.331H41.3194Z" fill="#656769" stroke="#45413C" stroke-linecap="round" stroke-linejoin="round"/>
<path d="M37.9791 37.7119H27.7355V39.4618H37.9791V37.7119Z" fill="#B89558" stroke="#45413C" stroke-linecap="round" stroke-linejoin="round"/>
<path d="M27.7355 37.7119C27.7398 36.1964 27.7355 32.7886 27.7355 28.1459" stroke="#45413C" stroke-linecap="round" stroke-linejoin="round"/>
<path d="M64.2729 39.849L63.2909 39.1242C62.0131 38.176 60.0701 37.3805 57.6767 36.8259C55.2834 36.2712 52.5329 35.9789 49.7296 35.9813H41.8528C39.6818 35.9828 37.564 35.7259 35.7969 35.2466L35.2881 35.1098C32.8417 34.3861 29.8602 33.9718 26.7624 33.925C21.9985 33.925 18.4776 35.0814 15.8322 36.0473C15.741 36.0806 15.668 36.1204 15.6175 36.1645C15.5669 36.2086 15.5398 36.256 15.5376 36.3041C15.5355 36.3522 15.5584 36.3999 15.605 36.4446C15.6516 36.4893 15.721 36.5301 15.8091 36.5645L15.8938 38.2C16.0708 38.2691 18.2353 37.4576 18.4891 37.4591C18.7429 37.4606 18.988 37.4238 19.1707 37.3568C21.5128 36.4989 23.8021 35.7482 26.724 35.7482C28.8388 35.7943 30.8625 36.0908 32.5112 36.5963L33.019 36.7334C35.5977 37.4326 38.6879 37.8074 41.8557 37.8052H49.7325C51.6538 37.8035 53.5389 38.0038 55.1793 38.384C56.8196 38.7641 58.1513 39.3093 59.0271 39.9592L60.0052 40.6847C60.5713 41.1028 61.2681 41.4934 62.0805 41.848C63.0537 41.2998 63.9273 40.727 64.6952 40.1335C64.5455 40.0409 64.4047 39.946 64.2729 39.849Z" fill="#99928A"/>
<path d="M64.2729 39.849L63.2909 39.1242C62.0131 38.176 60.0701 37.3805 57.6767 36.8259C55.2834 36.2712 52.5329 35.9789 49.7296 35.9813H41.8528C39.6818 35.9828 37.564 35.7259 35.7969 35.2466L35.2881 35.1098C32.8417 34.3861 29.8602 33.9718 26.7624 33.925C21.9985 33.925 18.4776 35.0814 15.8322 36.0473C15.741 36.0806 15.668 36.1204 15.6175 36.1645C15.5669 36.2086 15.5398 36.256 15.5376 36.3041C15.5355 36.3522 15.5584 36.3999 15.605 36.4446C15.6516 36.4893 15.721 36.5301 15.8091 36.5645L16.1192 36.6856C18.7301 35.7427 22.1665 34.6677 26.7624 34.6677C29.8611 34.7141 32.8437 35.1283 35.291 35.8521L35.7997 35.9893C37.5669 36.4686 39.6846 36.7255 41.8557 36.724H50.3852C52.7274 36.7238 55.0245 36.9688 57.0244 37.4321C59.0243 37.8954 60.6497 38.5591 61.7224 39.3504L63.4013 40.5906C63.5069 40.6687 63.6221 40.7445 63.7449 40.819C64.077 40.5933 64.3938 40.364 64.6952 40.131C64.5455 40.04 64.4047 39.946 64.2729 39.849Z" fill="#82746D"/>
<path d="M64.3402 39.7642L63.3582 39.0394C62.0804 38.0912 60.1374 37.2958 57.744 36.7411C55.3507 36.1864 52.6003 35.8941 49.797 35.8965H41.9201C39.7491 35.898 37.6313 35.6411 35.8642 35.1618L35.3555 35.025C32.909 34.3013 29.9276 33.887 26.8297 33.8402C22.0658 33.8402 18.545 34.9966 15.8995 35.9625C15.8083 35.9958 15.7353 36.0357 15.6848 36.0797C15.6342 36.1238 15.6848 37.1313 15.6848 37.1313C15.6848 37.1313 15.7073 38.47 15.9611 38.4715C16.2149 38.473 19.0553 37.3391 19.238 37.2721C21.5801 36.4141 23.8695 35.6634 26.7913 35.6634C28.9061 35.7095 30.9298 36.0061 32.5785 36.5115L33.0863 36.6487C35.665 37.3479 38.7552 37.7226 41.923 37.7204H49.7998C51.7212 37.7187 53.6062 37.919 55.2466 38.2992C56.887 38.6793 58.2187 39.2245 59.0944 39.8744L60.0725 40.6C60.6405 41.0179 61.3393 41.4082 62.1536 41.7625C63.1261 41.2142 63.9994 40.6414 64.7673 40.048C64.6144 39.9559 64.472 39.8613 64.3402 39.7642Z" stroke="#45413C" stroke-linecap="round" stroke-linejoin="round"/>
<path d="M22.0391 37.8566L20.2115 37.4241C19.9859 37.3846 19.7805 37.2692 19.6295 37.0969C19.4786 36.9247 19.391 36.706 19.3814 36.4772L19.4142 35.5858C19.4334 35.449 19.4826 35.3181 19.5583 35.2025C19.6341 35.0869 19.7344 34.9895 19.8523 34.9173C19.9701 34.8451 20.1025 34.7999 20.2398 34.7849C20.3772 34.7699 20.5162 34.7855 20.6468 34.8306L22.8121 35.3429C22.9491 35.3612 23.0803 35.4096 23.1964 35.4845C23.3125 35.5595 23.4105 35.6593 23.4835 35.7766C23.5565 35.8939 23.6026 36.0259 23.6186 36.1632C23.6346 36.3005 23.62 36.4395 23.5759 36.5705L23.2054 37.3813C23.0944 37.5817 22.9182 37.7382 22.706 37.8246C22.4939 37.9111 22.2585 37.9223 22.0391 37.8566V37.8566Z" fill="#FFCEBF" stroke="#45413C" stroke-linecap="round" stroke-linejoin="round"/>
<path d="M36.4138 38.0269C36.1864 38.3631 36.1018 38.776 36.1788 39.1746C36.2558 39.5731 36.4879 39.9248 36.8242 40.1522C37.1604 40.3797 37.5733 40.4642 37.9719 40.3872C38.3705 40.3103 38.7221 40.0781 38.9496 39.7419L39.8046 38.4736L37.2681 36.7586L36.4138 38.0269Z" fill="#FFCEBF" stroke="#45413C" stroke-linecap="round" stroke-linejoin="round"/>
<path d="M38.9759 29.1797V32.9781C38.9762 33.5925 38.8092 34.1955 38.4929 34.7223L37.2709 36.76L39.8074 38.475L41.6086 35.568C41.9413 35.0316 42.1174 34.413 42.1174 33.7818V30.3091" fill="#E8F4FA"/>
<path d="M38.9759 29.1797V32.9781C38.9762 33.5925 38.8092 34.1955 38.4929 34.7223L37.2709 36.76L39.8074 38.475L41.6086 35.568C41.9413 35.0316 42.1174 34.413 42.1174 33.7818V30.3091" stroke="#45413C" stroke-linecap="round" stroke-linejoin="round"/>
<path d="M32.9118 24.8064L31.6778 34.8285L33.427 36.8327L35.1769 34.8285L33.6728 24.8064H32.9118Z" fill="#D6B300" stroke="#45413C" stroke-linecap="round" stroke-linejoin="round"/>
<path d="M34.4337 24.8064H32.1516V27.0886H34.4337V24.8064Z" fill="#FF6242" stroke="#45413C" stroke-linecap="round" stroke-linejoin="round"/>
<path d="M29.1961 22.488L30.8349 25.8495C30.9197 25.9397 31.0226 26.0109 31.137 26.0584C31.2513 26.1058 31.3744 26.1284 31.4981 26.1247C31.6219 26.121 31.7434 26.0911 31.8547 26.0369C31.966 25.9827 32.0645 25.9055 32.1437 25.8103L33.3521 24.8335L31.4797 22.2044V22.0662C30.7085 22.1459 29.9449 22.287 29.1961 22.488V22.488Z" fill="white" stroke="#45413C" stroke-linecap="round" stroke-linejoin="round"/>
<path d="M35.221 22.126V22.2094L33.3521 24.8335L34.5556 25.8089C34.6348 25.904 34.7333 25.9812 34.8446 26.0354C34.9559 26.0896 35.0774 26.1196 35.2012 26.1233C35.3249 26.127 35.448 26.1044 35.5623 26.0569C35.6767 26.0095 35.7796 25.9383 35.8644 25.8481L37.3379 22.8285C36.6651 22.505 35.9537 22.2689 35.221 22.126V22.126Z" fill="white" stroke="#45413C" stroke-linecap="round" stroke-linejoin="round"/>
<path d="M35.2203 22.2058L33.3521 24.8349L31.4797 22.2058L31.484 18.1488H35.2246L35.2203 22.2058Z" fill="#FFCEBF" stroke="#45413C" stroke-linecap="round" stroke-linejoin="round"/>
<path d="M33.2887 21.2532C34.3913 21.2637 35.4684 20.9223 36.3637 20.2787C37.259 19.6351 37.9257 18.7228 38.2669 17.6743H38.2762C39.9199 17.6943 40.051 15.0965 38.5676 15.0787L38.5804 14.0391C38.5553 12.6876 38.005 11.399 37.0462 10.4462C36.0873 9.49343 34.7952 8.95138 33.4435 8.9349C32.0919 8.91841 30.7869 9.42878 29.8051 10.3579C28.8233 11.287 28.2417 12.5618 28.1836 13.9123L28.1715 14.9518C26.6874 14.9333 26.7565 17.5339 28.3995 17.5539H28.4038C28.7191 18.6097 29.3626 19.5376 30.241 20.2028C31.1194 20.868 32.187 21.2359 33.2887 21.2532V21.2532Z" fill="#FFCEBF" stroke="#45413C" stroke-linecap="round" stroke-linejoin="round"/>
<path d="M30.7465 16.5436C30.7451 16.6463 30.7133 16.7462 30.6551 16.8308C30.5968 16.9154 30.5149 16.9809 30.4195 17.0189C30.3241 17.0569 30.2195 17.0658 30.1191 17.0445C30.0186 17.0231 29.9268 16.9724 29.8551 16.8989C29.7834 16.8253 29.7352 16.7322 29.7165 16.6312C29.6977 16.5302 29.7093 16.426 29.7498 16.3316C29.7903 16.2372 29.8579 16.157 29.944 16.101C30.0301 16.045 30.1308 16.0158 30.2335 16.017C30.3018 16.0179 30.3692 16.0322 30.432 16.0591C30.4947 16.086 30.5515 16.125 30.5992 16.1739C30.6468 16.2228 30.6844 16.2807 30.7096 16.3441C30.7349 16.4075 30.7475 16.4753 30.7465 16.5436V16.5436Z" fill="#FFB59E"/>
<path d="M36.9845 16.6191C36.9832 16.722 36.9514 16.8222 36.8932 16.907C36.8349 16.9918 36.7528 17.0575 36.6573 17.0957C36.5617 17.1338 36.457 17.1428 36.3563 17.1214C36.2557 17.1 36.1636 17.0493 36.0918 16.9756C36.02 16.9019 35.9717 16.8086 35.9529 16.7074C35.9342 16.6062 35.9459 16.5017 35.9865 16.4072C36.0272 16.3127 36.0949 16.2323 36.1813 16.1763C36.2676 16.1203 36.3686 16.0912 36.4715 16.0926C36.5397 16.0934 36.6072 16.1077 36.6699 16.1346C36.7327 16.1615 36.7895 16.2006 36.8371 16.2495C36.8848 16.2984 36.9223 16.3562 36.9476 16.4196C36.9729 16.483 36.9854 16.5508 36.9845 16.6191V16.6191Z" fill="#FFB59E"/>
<path d="M34.6275 18.1659C34.2458 18.4274 33.7952 18.5699 33.3326 18.5755C32.87 18.581 32.4162 18.4494 32.0283 18.1973" stroke="#45413C" stroke-linecap="round" stroke-linejoin="round"/>
<path d="M30.5541 11.8482C32.7102 13.9914 36.4095 13.7919 38.8063 13.0944C38.8977 13.0674 38.9775 13.0107 39.033 12.9333C39.0885 12.8558 39.1166 12.7621 39.1127 12.6669C39.0425 11.1798 38.3951 9.77881 37.3083 8.76153C36.2214 7.74425 34.7807 7.1909 33.2923 7.21908C31.7781 7.28725 30.3488 7.93783 29.303 9.03492C28.2571 10.132 27.6756 11.5908 27.6799 13.1065L27.6678 14.0669C27.6668 14.1381 27.6833 14.2085 27.716 14.2718C27.7486 14.3351 27.7963 14.3893 27.855 14.4298C27.9136 14.4702 27.9812 14.4956 28.052 14.5036C28.1228 14.5117 28.1944 14.5021 28.2606 14.4759C29.1028 14.1453 30.5356 13.3615 30.5541 11.8489" fill="#FFDF3D"/>
<path d="M30.5541 11.8482C32.7102 13.9914 36.4095 13.7919 38.8063 13.0944C38.8977 13.0674 38.9775 13.0107 39.033 12.9333C39.0885 12.8558 39.1166 12.7621 39.1127 12.6669C39.0425 11.1798 38.3951 9.77881 37.3083 8.76153C36.2214 7.74425 34.7807 7.1909 33.2923 7.21908C31.7781 7.28725 30.3488 7.93783 29.303 9.03492C28.2571 10.132 27.6756 11.5908 27.6799 13.1065L27.6678 14.0669C27.6668 14.1381 27.6833 14.2085 27.716 14.2718C27.7486 14.3351 27.7963 14.3893 27.855 14.4298C27.9136 14.4702 27.9812 14.4956 28.052 14.5036C28.1228 14.5117 28.1944 14.5021 28.2606 14.4759C29.1028 14.1453 30.5356 13.3615 30.5541 11.8489" stroke="#45413C" stroke-linecap="round" stroke-linejoin="round"/>
<path d="M33.2631 9.60809C34.4125 9.58623 35.5419 9.91124 36.5039 10.5408C37.4658 11.1703 38.2158 12.075 38.656 13.1371L38.8063 13.0944C38.8977 13.0674 38.9775 13.0107 39.033 12.9333C39.0885 12.8558 39.1166 12.7621 39.1127 12.6669C39.0425 11.1798 38.3951 9.77881 37.3083 8.76153C36.2214 7.74425 34.7807 7.1909 33.2923 7.21908C31.7781 7.28725 30.3488 7.93783 29.303 9.03492C28.2571 10.132 27.6756 11.5908 27.6799 13.1065L27.6678 14.0669C27.6663 14.1728 27.7039 14.2755 27.7732 14.3555C28.0149 13.0592 28.6898 11.8834 29.6872 11.0209C30.6846 10.1583 31.9454 9.6602 33.2631 9.60809V9.60809Z" fill="#FFEF9E"/>
<path d="M30.5541 11.8482C32.7102 13.9914 36.4095 13.7919 38.8063 13.0944C38.8977 13.0674 38.9775 13.0107 39.033 12.9333C39.0885 12.8558 39.1166 12.7621 39.1127 12.6669C39.0425 11.1798 38.3951 9.77881 37.3083 8.76153C36.2214 7.74425 34.7807 7.1909 33.2923 7.21908C31.7781 7.28725 30.3488 7.93783 29.303 9.03492C28.2571 10.132 27.6756 11.5908 27.6799 13.1065L27.6678 14.0669C27.6668 14.1381 27.6833 14.2085 27.716 14.2718C27.7486 14.3351 27.7963 14.3893 27.855 14.4298C27.9136 14.4702 27.9812 14.4956 28.052 14.5036C28.1228 14.5117 28.1944 14.5021 28.2606 14.4759C29.1028 14.1453 30.5356 13.3615 30.5541 11.8489" stroke="#45413C" stroke-linecap="round" stroke-linejoin="round"/>
<path d="M30.5541 11.8482C30.3542 11.6955 30.1819 11.5097 30.0447 11.2989" stroke="#45413C" stroke-linecap="round" stroke-linejoin="round"/>
<path d="M31.6215 15.8496C31.9925 15.8496 32.2934 15.5488 32.2934 15.1777C32.2934 14.8066 31.9925 14.5058 31.6215 14.5058C31.2504 14.5058 30.9496 14.8066 30.9496 15.1777C30.9496 15.5488 31.2504 15.8496 31.6215 15.8496Z" fill="#45413C"/>
<path d="M35.0835 15.8496C35.4546 15.8496 35.7554 15.5488 35.7554 15.1777C35.7554 14.8066 35.4546 14.5058 35.0835 14.5058C34.7124 14.5058 34.4116 14.8066 34.4116 15.1777C34.4116 15.5488 34.7124 15.8496 35.0835 15.8496Z" fill="#45413C"/>
</g>
<path d="M77.6847 32.9048C75.6156 32.9048 73.8388 32.4505 72.3545 31.5419C70.8791 30.6333 69.7411 29.3783 68.9404 27.777C68.1487 26.1667 67.7529 24.3134 67.7529 22.2173C67.7529 20.1122 68.1577 18.2545 68.9674 16.6442C69.7771 15.0249 70.9196 13.7654 72.395 12.8658C73.8793 11.9571 75.6336 11.5028 77.6577 11.5028C79.34 11.5028 80.8289 11.8132 82.1244 12.4339C83.4288 13.0457 84.4679 13.9138 85.2415 15.0384C86.0152 16.1539 86.456 17.4583 86.564 18.9517H81.895C81.706 17.9531 81.2562 17.121 80.5455 16.4553C79.8438 15.7805 78.9037 15.4432 77.7252 15.4432C76.7266 15.4432 75.8495 15.7131 75.0938 16.2528C74.3381 16.7836 73.7489 17.5483 73.3261 18.5469C72.9122 19.5455 72.7053 20.742 72.7053 22.1364C72.7053 23.5488 72.9122 24.7633 73.3261 25.7798C73.7399 26.7874 74.3201 27.5656 75.0668 28.1143C75.8225 28.6541 76.7086 28.924 77.7252 28.924C78.4449 28.924 79.0881 28.7891 79.6549 28.5192C80.2307 28.2403 80.712 27.84 81.0988 27.3182C81.4856 26.7964 81.751 26.1622 81.895 25.4155H86.564C86.447 26.8819 86.0152 28.1818 85.2685 29.3153C84.5218 30.4399 83.5053 31.3215 82.2188 31.9602C80.9324 32.59 79.421 32.9048 77.6847 32.9048ZM97.7164 32.9048C95.6922 32.9048 93.938 32.4595 92.4536 31.5689C90.9692 30.6783 89.8177 29.4323 88.999 27.831C88.1894 26.2296 87.7845 24.3584 87.7845 22.2173C87.7845 20.0762 88.1894 18.2005 88.999 16.5902C89.8177 14.9799 90.9692 13.7294 92.4536 12.8388C93.938 11.9482 95.6922 11.5028 97.7164 11.5028C99.7405 11.5028 101.495 11.9482 102.979 12.8388C104.464 13.7294 105.611 14.9799 106.42 16.5902C107.239 18.2005 107.648 20.0762 107.648 22.2173C107.648 24.3584 107.239 26.2296 106.42 27.831C105.611 29.4323 104.464 30.6783 102.979 31.5689C101.495 32.4595 99.7405 32.9048 97.7164 32.9048ZM97.7434 28.9915C98.8409 28.9915 99.7585 28.6901 100.496 28.0874C101.234 27.4756 101.783 26.657 102.143 25.6314C102.511 24.6058 102.696 23.4633 102.696 22.2038C102.696 20.9354 102.511 19.7884 102.143 18.7628C101.783 17.7282 101.234 16.9051 100.496 16.2933C99.7585 15.6816 98.8409 15.3757 97.7434 15.3757C96.6188 15.3757 95.6832 15.6816 94.9365 16.2933C94.1988 16.9051 93.6456 17.7282 93.2767 18.7628C92.9169 19.7884 92.737 20.9354 92.737 22.2038C92.737 23.4633 92.9169 24.6058 93.2767 25.6314C93.6456 26.657 94.1988 27.4756 94.9365 28.0874C95.6832 28.6901 96.6188 28.9915 97.7434 28.9915ZM109.894 32.5V11.7727H114.631V15.2273H114.847C115.225 14.0308 115.872 13.1087 116.79 12.4609C117.717 11.8042 118.774 11.4759 119.961 11.4759C120.231 11.4759 120.532 11.4893 120.865 11.5163C121.207 11.5343 121.49 11.5658 121.715 11.6108V16.1044C121.508 16.0324 121.18 15.9695 120.73 15.9155C120.289 15.8525 119.862 15.821 119.448 15.821C118.558 15.821 117.757 16.0144 117.046 16.4013C116.345 16.7791 115.791 17.3054 115.387 17.9801C114.982 18.6548 114.779 19.433 114.779 20.3146V32.5H109.894ZM128.654 32.9183C127.341 32.9183 126.158 32.6844 125.105 32.2166C124.062 31.7398 123.234 31.0381 122.622 30.1115C122.019 29.1849 121.718 28.0424 121.718 26.6839C121.718 25.5144 121.934 24.5473 122.366 23.7827C122.798 23.018 123.387 22.4062 124.134 21.9474C124.88 21.4886 125.721 21.1423 126.657 20.9084C127.602 20.6655 128.578 20.4901 129.585 20.3821C130.8 20.2562 131.785 20.1437 132.54 20.0447C133.296 19.9368 133.845 19.7749 134.187 19.5589C134.538 19.334 134.713 18.9877 134.713 18.5199V18.4389C134.713 17.4223 134.412 16.6352 133.809 16.0774C133.206 15.5196 132.338 15.2408 131.205 15.2408C130.008 15.2408 129.059 15.5017 128.357 16.0234C127.665 16.5452 127.197 17.1615 126.954 17.8722L122.393 17.2244C122.753 15.965 123.346 14.9124 124.174 14.0668C125.002 13.2121 126.014 12.5734 127.21 12.1506C128.407 11.7188 129.729 11.5028 131.178 11.5028C132.176 11.5028 133.17 11.6198 134.16 11.8537C135.149 12.0876 136.054 12.4744 136.872 13.0142C137.691 13.545 138.348 14.2692 138.842 15.1868C139.346 16.1044 139.598 17.2514 139.598 18.6278V32.5H134.902V29.6527H134.74C134.443 30.2285 134.025 30.7682 133.485 31.272C132.954 31.7668 132.284 32.1671 131.474 32.473C130.674 32.7699 129.734 32.9183 128.654 32.9183ZM129.923 29.3288C130.903 29.3288 131.753 29.1354 132.473 28.7486C133.193 28.3527 133.746 27.831 134.133 27.1832C134.529 26.5355 134.727 25.8293 134.727 25.0646V22.6222C134.574 22.7481 134.313 22.8651 133.944 22.973C133.584 23.081 133.179 23.1754 132.729 23.2564C132.28 23.3374 131.834 23.4093 131.393 23.4723C130.953 23.5353 130.57 23.5893 130.246 23.6342C129.518 23.7332 128.866 23.8951 128.29 24.12C127.714 24.3449 127.26 24.6598 126.927 25.0646C126.594 25.4605 126.428 25.9732 126.428 26.603C126.428 27.5026 126.756 28.1818 127.413 28.6406C128.069 29.0994 128.906 29.3288 129.923 29.3288Z" fill="#60A2C3"/>
<path d="M106.11 31.8636V59.5H101.657L88.6347 40.6754H88.4053V59.5H83.3989V31.8636H87.879L100.888 50.7017H101.13V31.8636H106.11ZM118.625 59.9048C116.547 59.9048 114.752 59.473 113.241 58.6094C111.739 57.7367 110.583 56.5043 109.773 54.9119C108.963 53.3106 108.558 51.4259 108.558 49.2578C108.558 47.1257 108.963 45.2545 109.773 43.6442C110.592 42.0249 111.734 40.7654 113.2 39.8658C114.667 38.9571 116.39 38.5028 118.369 38.5028C119.646 38.5028 120.852 38.7098 121.985 39.1236C123.128 39.5284 124.135 40.1581 125.008 41.0128C125.89 41.8674 126.582 42.956 127.086 44.2784C127.59 45.5919 127.842 47.1572 127.842 48.9744V50.4723H110.852V47.1797H123.159C123.15 46.2441 122.948 45.4119 122.552 44.6832C122.156 43.9455 121.603 43.3653 120.892 42.9425C120.19 42.5196 119.372 42.3082 118.436 42.3082C117.438 42.3082 116.561 42.5511 115.805 43.0369C115.049 43.5137 114.46 44.1435 114.037 44.9261C113.623 45.6998 113.412 46.55 113.403 47.4766V50.3509C113.403 51.5563 113.623 52.5909 114.064 53.4545C114.505 54.3092 115.121 54.9659 115.913 55.4247C116.704 55.8745 117.631 56.0994 118.693 56.0994C119.403 56.0994 120.047 56.0005 120.622 55.8026C121.198 55.5956 121.697 55.2943 122.12 54.8984C122.543 54.5026 122.862 54.0123 123.078 53.4276L127.639 53.9403C127.351 55.1458 126.803 56.1984 125.993 57.098C125.192 57.9886 124.167 58.6813 122.916 59.1761C121.666 59.6619 120.235 59.9048 118.625 59.9048ZM140.425 38.7727V42.5511H128.509V38.7727H140.425ZM131.451 33.8068H136.336V53.2656C136.336 53.9223 136.435 54.4261 136.633 54.777C136.84 55.1188 137.109 55.3527 137.442 55.4787C137.775 55.6046 138.144 55.6676 138.549 55.6676C138.855 55.6676 139.134 55.6451 139.385 55.6001C139.646 55.5552 139.844 55.5147 139.979 55.4787L140.802 59.2976C140.541 59.3875 140.168 59.4865 139.682 59.5945C139.206 59.7024 138.621 59.7654 137.928 59.7834C136.705 59.8194 135.603 59.6349 134.622 59.2301C133.641 58.8163 132.863 58.1776 132.287 57.3139C131.721 56.4503 131.442 55.3707 131.451 54.0753V33.8068Z" fill="#AACDDF"/>
</svg>
