<svg width="277" height="64" viewBox="0 0 277 64" fill="none" xmlns="http://www.w3.org/2000/svg">
<rect width="277" height="64" fill="white"/>
<path d="M30.5 60C46.2401 60 59 47.464 59 32C59 16.536 46.2401 4 30.5 4C14.7599 4 2 16.536 2 32C2 47.464 14.7599 60 30.5 60Z" fill="#DAE5EB"/>
<path d="M47.2373 29.2574C47.2338 28.1478 47.0048 27.05 46.5637 26.0284C46.1226 25.0069 45.4784 24.0822 44.6688 23.3085C43.8591 22.5347 42.9004 21.9276 41.8488 21.5227C40.7972 21.1178 39.674 20.9233 38.5448 20.9505C30.4352 20.9505 26.2514 25.8449 24.2236 33.8361L27.266 35.0394C29.2944 28.8738 30.8477 26.6002 32.8619 25.8841V38.1397H44.2277" fill="#E8F4FA"/>
<path d="M38.5413 20.9505C30.4316 20.9505 26.2478 25.8449 24.22 33.8361L24.6917 34.0223C26.8691 27.0223 31.0116 22.7971 38.542 22.7971C39.6711 22.7699 40.7944 22.9644 41.846 23.3693C42.8976 23.7742 43.8563 24.3813 44.6659 25.1551C45.4755 25.9288 46.1198 26.8535 46.5608 27.875C47.0019 28.8966 47.2309 29.9944 47.2345 31.104V29.2574C47.2309 28.1477 47.0019 27.0499 46.5608 26.0283C46.1197 25.0067 45.4754 24.0819 44.6657 23.3082C43.856 22.5345 42.8972 21.9274 41.8455 21.5225C40.7938 21.1177 39.6705 20.9232 38.5413 20.9505V20.9505Z" fill="white"/>
<path d="M47.2373 29.2875C47.2379 28.1753 47.0119 27.0743 46.5726 26.0492C46.1334 25.0242 45.4897 24.0959 44.6797 23.319C43.8697 22.5421 42.9096 21.9323 41.856 21.5255C40.8023 21.1187 39.6765 20.9232 38.5448 20.9505C30.4352 20.9505 26.2514 25.8449 24.2236 33.8361L27.266 35.0394C29.2944 28.8738 30.8477 26.6002 32.8619 25.8841V38.1397H44.2277" stroke="#45413C" stroke-linecap="round" stroke-linejoin="round"/>
<path d="M32.8555 38.1397L30.2699 52.3609H34.4807L37.5466 41.548C37.5656 41.3016 37.6787 41.0714 37.8631 40.9034C38.0475 40.7354 38.2898 40.642 38.5413 40.642C38.7928 40.642 39.035 40.7354 39.2195 40.9034C39.4039 41.0714 39.5169 41.3016 39.5359 41.548L42.5997 52.3581H46.8163L44.2277 38.1397H32.8555Z" fill="#87898C"/>
<path d="M44.5655 39.9996L44.2277 38.1397H32.8555L32.5171 39.9996H44.5655Z" fill="#656769"/>
<path d="M32.8555 38.1397L30.2699 52.3609H34.4807L37.5466 41.548C37.5656 41.3016 37.6787 41.0714 37.8631 40.9034C38.0475 40.7354 38.2898 40.642 38.5413 40.642C38.7928 40.642 39.035 40.7354 39.2195 40.9034C39.4039 41.0714 39.5169 41.3016 39.5359 41.548L42.5997 52.3581H46.8163L44.2277 38.1397H32.8555Z" stroke="#45413C" stroke-linecap="round" stroke-linejoin="round"/>
<path opacity="0.15" d="M38.5705 54.1816C43.4019 54.1816 47.3186 53.6043 47.3186 52.8922C47.3186 52.1801 43.4019 51.6028 38.5705 51.6028C33.7391 51.6028 29.8224 52.1801 29.8224 52.8922C29.8224 53.6043 33.7391 54.1816 38.5705 54.1816Z" fill="#45413C"/>
<path d="M30.6425 52.748C30.4925 52.7494 30.3447 52.7128 30.2133 52.6416C30.082 52.5704 29.9716 52.4672 29.8927 52.3418C29.8139 52.2164 29.7694 52.0732 29.7634 51.9259C29.7575 51.7787 29.7903 51.6324 29.8587 51.5013C30.0857 51.098 30.4186 50.7619 30.8227 50.5279C31.2269 50.294 31.6875 50.1709 32.1566 50.1713H32.594C33.0631 50.171 33.5236 50.2942 33.9277 50.5281C34.3319 50.762 34.6648 51.0981 34.8918 51.5013C34.9601 51.6324 34.9927 51.7787 34.9867 51.9258C34.9806 52.073 34.9361 52.2161 34.8573 52.3415C34.7785 52.4668 34.6682 52.57 34.5369 52.6412C34.4057 52.7124 34.258 52.7492 34.1081 52.748H30.6425Z" fill="#656769" stroke="#45413C" stroke-linecap="round" stroke-linejoin="round"/>
<path d="M46.4393 52.748C46.5892 52.7492 46.7369 52.7124 46.8682 52.6412C46.9994 52.57 47.1097 52.4668 47.1885 52.3415C47.2673 52.2161 47.3119 52.073 47.3179 51.9258C47.324 51.7787 47.2913 51.6324 47.2231 51.5013C46.996 51.0981 46.6631 50.762 46.259 50.5281C45.8549 50.2942 45.3943 50.171 44.9253 50.1713H44.4878C44.0187 50.1709 43.5582 50.2941 43.154 50.528C42.7499 50.7619 42.417 51.098 42.19 51.5013C42.1218 51.6324 42.0891 51.7787 42.0951 51.9258C42.1012 52.073 42.1458 52.2161 42.2246 52.3415C42.3033 52.4668 42.4137 52.57 42.5449 52.6412C42.6761 52.7124 42.8238 52.7492 42.9737 52.748H46.4393Z" fill="#656769" stroke="#45413C" stroke-linecap="round" stroke-linejoin="round"/>
<path d="M43.0991 36.4205H32.8555V38.1397H43.0991V36.4205Z" fill="#B89558" stroke="#45413C" stroke-linecap="round" stroke-linejoin="round"/>
<path d="M32.8555 36.4205C32.8598 34.9316 32.8555 31.5835 32.8555 27.0223" stroke="#45413C" stroke-linecap="round" stroke-linejoin="round"/>
<path d="M55.7781 43.7943L55.0492 42.4034C54.1007 40.5838 52.6584 39.0574 50.8819 37.993C49.1054 36.9286 47.0638 36.3676 44.983 36.3722H39.1362C37.5247 36.3751 35.9528 35.8821 34.641 34.9624L34.2634 34.6999C32.4475 33.3111 30.2344 32.5161 27.935 32.4263C24.3989 32.4263 21.7854 34.6453 19.8218 36.4989C19.7541 36.5628 19.6999 36.6393 19.6624 36.7239C19.6249 36.8084 19.6047 36.8995 19.6031 36.9917C19.6015 37.084 19.6185 37.1756 19.6531 37.2614C19.6877 37.3471 19.7392 37.4254 19.8047 37.4915L21.2945 38.9965C21.4259 39.1292 21.6055 39.2053 21.7939 39.2081C21.9823 39.211 22.1642 39.1405 22.2998 39.0119C24.0383 37.3655 25.7376 35.9249 27.9065 35.9249C29.4762 36.0134 30.9784 36.5825 32.2022 37.5524L32.5791 37.8156C34.4932 39.1573 36.787 39.8765 39.1383 39.8722H44.9851C46.4113 39.869 47.8105 40.2534 49.0281 40.9829C50.2457 41.7124 51.2342 42.7586 51.8843 44.0057L52.6103 45.398C53.0305 46.2003 53.5477 46.9498 54.1507 47.6303C54.8731 46.5783 55.5215 45.4791 56.0916 44.3403C55.9804 44.1625 55.8759 43.9805 55.7781 43.7943Z" fill="#FF6242"/>
<path d="M55.7781 43.7943L55.0492 42.4034C54.1007 40.5838 52.6584 39.0574 50.8819 37.993C49.1054 36.9286 47.0638 36.3676 44.983 36.3722H39.1362C37.5247 36.3751 35.9528 35.8821 34.641 34.9624L34.2634 34.6999C32.4475 33.3111 30.2344 32.5161 27.935 32.4263C24.3989 32.4263 21.7854 34.6453 19.8218 36.4989C19.7541 36.5628 19.6999 36.6393 19.6624 36.7239C19.6249 36.8084 19.6047 36.8995 19.6031 36.9917C19.6015 37.084 19.6185 37.1756 19.6531 37.2614C19.6877 37.3471 19.7392 37.4254 19.8047 37.4915L20.0348 37.7239C21.9728 35.9144 24.5235 33.8515 27.935 33.8515C30.2351 33.9405 32.449 34.7354 34.2656 36.1244L34.6432 36.3876C35.9549 37.3073 37.5269 37.8003 39.1383 37.7974H45.4696C47.2082 37.7971 48.9132 38.2673 50.3977 39.1564C51.8822 40.0454 53.0887 41.319 53.885 42.8374L55.1311 45.2174C55.2095 45.3672 55.295 45.5128 55.3862 45.6556C55.6327 45.2225 55.8679 44.7825 56.0916 44.3354C55.9804 44.1609 55.8759 43.9805 55.7781 43.7943Z" fill="#FF866E"/>
<path d="M55.7781 43.7943L55.0492 42.4034C54.1007 40.5838 52.6584 39.0574 50.8819 37.993C49.1054 36.9286 47.0638 36.3676 44.983 36.3722H39.1362C37.5247 36.3751 35.9528 35.8821 34.641 34.9624L34.2634 34.6999C32.4475 33.3111 30.2344 32.5161 27.935 32.4263C24.3989 32.4263 21.7854 34.6453 19.8218 36.4989C19.7541 36.5628 19.6999 36.6393 19.6624 36.7239C19.6249 36.8084 19.6047 36.8995 19.6031 36.9917C19.6015 37.0839 19.6185 37.1756 19.6531 37.2614C19.6877 37.3471 19.7392 37.4254 19.8047 37.4915L21.2945 38.9965C21.4259 39.1292 21.6055 39.2053 21.7939 39.2081C21.9823 39.211 22.1642 39.1405 22.2998 39.0119C24.0383 37.3655 25.7376 35.9249 27.9065 35.9249C29.4762 36.0134 30.9784 36.5825 32.2022 37.5524L32.5791 37.8156C34.4932 39.1573 36.787 39.8765 39.1383 39.8722H44.9851C46.4113 39.869 47.8105 40.2534 49.0281 40.9829C50.2457 41.7124 51.2342 42.7586 51.8843 44.0057L52.6103 45.398C53.0319 46.2 53.5506 46.9491 54.155 47.6289C54.8769 46.5767 55.5251 45.4775 56.0951 44.3389C55.9816 44.162 55.8759 43.9805 55.7781 43.7943Z" stroke="#45413C" stroke-linecap="round" stroke-linejoin="round"/>
<path d="M27.1591 36.5626L25.3315 36.1377C25.1059 36.0989 24.9006 35.9855 24.7496 35.8163C24.5986 35.6471 24.511 35.4322 24.5015 35.2074L24.5342 34.3317C24.5534 34.1972 24.6026 34.0686 24.6783 33.9551C24.7541 33.8415 24.8545 33.7458 24.9723 33.6749C25.0901 33.604 25.2225 33.5595 25.3599 33.5448C25.4972 33.5301 25.6362 33.5454 25.7669 33.5897L27.9322 34.093C28.0691 34.111 28.2003 34.1585 28.3164 34.2322C28.4325 34.3059 28.5305 34.4038 28.6035 34.5191C28.6765 34.6344 28.7227 34.7641 28.7386 34.8989C28.7546 35.0338 28.74 35.1704 28.696 35.2991L28.3255 36.0957C28.2144 36.2926 28.0382 36.4463 27.8261 36.5312C27.6139 36.6161 27.3785 36.6272 27.1591 36.5626V36.5626Z" fill="#FFCEBF" stroke="#45413C" stroke-linecap="round" stroke-linejoin="round"/>
<path d="M41.5338 36.7299C41.3064 37.0603 41.2218 37.4659 41.2988 37.8575C41.3758 38.2491 41.6079 38.5946 41.9442 38.818C42.2804 39.0414 42.6933 39.1245 43.0919 39.0489C43.4904 38.9732 43.8421 38.7452 44.0696 38.4148L44.9246 37.1688L42.3881 35.4839L41.5338 36.7299Z" fill="#FFCEBF" stroke="#45413C" stroke-linecap="round" stroke-linejoin="round"/>
<path d="M44.0959 28.038V31.7697C44.0962 32.3734 43.9292 32.9657 43.6128 33.4833L42.3909 35.4853L44.9274 37.1702L46.7286 34.3142C47.0612 33.7872 47.2374 33.1794 47.2373 32.5593V29.1475" fill="#E8F4FA"/>
<path d="M44.0959 28.038V31.7697C44.0962 32.3734 43.9292 32.9657 43.6128 33.4833L42.3909 35.4853L44.9274 37.1702L46.7286 34.3142C47.0612 33.7872 47.2374 33.1794 47.2373 32.5593V29.1475" stroke="#45413C" stroke-linecap="round" stroke-linejoin="round"/>
<path d="M20.2742 37.9864L17.2553 40.4938" stroke="#45413C" stroke-linecap="round" stroke-linejoin="round"/>
<path d="M20.8299 38.5296L19.1256 41.4906" stroke="#45413C" stroke-linecap="round" stroke-linejoin="round"/>
<path d="M38.0318 23.7414L36.7978 33.5876L38.547 35.5567L40.2969 33.5876L38.7928 23.7414H38.0318Z" fill="#6DD627" stroke="#45413C" stroke-linecap="round" stroke-linejoin="round"/>
<path d="M39.5537 23.7414H37.2716V25.9835H39.5537V23.7414Z" fill="#FF6242" stroke="#45413C" stroke-linecap="round" stroke-linejoin="round"/>
<path d="M34.3161 21.4636L35.9549 24.7662C36.0397 24.8548 36.1426 24.9248 36.257 24.9714C36.3713 25.018 36.4944 25.0402 36.6182 25.0366C36.7419 25.0329 36.8634 25.0035 36.9747 24.9503C37.086 24.897 37.1845 24.8212 37.2638 24.7277L38.4722 23.768L36.5997 21.185V21.0492C35.8285 21.1276 35.0649 21.2662 34.3161 21.4636V21.4636Z" fill="white" stroke="#45413C" stroke-linecap="round" stroke-linejoin="round"/>
<path d="M40.341 21.108V21.1899L38.4722 23.768L39.6756 24.7263C39.7548 24.8198 39.8533 24.8956 39.9646 24.9489C40.0759 25.0021 40.1974 25.0315 40.3212 25.0352C40.4449 25.0388 40.568 25.0166 40.6824 24.97C40.7967 24.9234 40.8997 24.8534 40.9844 24.7648L42.4579 21.7982C41.7852 21.4803 41.0738 21.2484 40.341 21.108V21.108Z" fill="white" stroke="#45413C" stroke-linecap="round" stroke-linejoin="round"/>
<path d="M40.3403 21.1864L38.4722 23.7694L36.5997 21.1864L36.604 17.2006H40.3446L40.3403 21.1864Z" fill="#FFCEBF" stroke="#45413C" stroke-linecap="round" stroke-linejoin="round"/>
<path d="M30.5 60C46.2401 60 59 47.464 59 32C59 16.536 46.2401 4 30.5 4C14.7599 4 2 16.536 2 32C2 47.464 14.7599 60 30.5 60Z" stroke="#DAEDF7" stroke-miterlimit="10"/>
<path d="M38.4087 20.2505C39.5113 20.2608 40.5885 19.9254 41.4837 19.2931C42.379 18.6608 43.0457 17.7645 43.387 16.7344H43.3962C45.04 16.754 45.1711 14.2018 43.6877 14.1843L43.7005 13.163C43.6754 11.8352 43.1251 10.5692 42.1662 9.63312C41.2073 8.69706 39.9152 8.16452 38.5636 8.14832C37.2119 8.13212 35.907 8.63354 34.9251 9.54634C33.9433 10.4591 33.3618 11.7116 33.3037 13.0384L33.2916 14.0597C31.8074 14.0415 31.8765 16.5965 33.5196 16.6161H33.5238C33.8391 17.6534 34.4826 18.565 35.361 19.2185C36.2394 19.8721 37.307 20.2335 38.4087 20.2505V20.2505Z" fill="#FFCEBF" stroke="#45413C" stroke-linecap="round" stroke-linejoin="round"/>
<path d="M35.8666 15.624C35.8651 15.7249 35.8333 15.8232 35.7751 15.9064C35.7169 15.9896 35.6349 16.054 35.5395 16.0914C35.4441 16.1288 35.3396 16.1375 35.2391 16.1165C35.1387 16.0955 35.0468 16.0457 34.9752 15.9733C34.9035 15.901 34.8552 15.8094 34.8365 15.7101C34.8178 15.6108 34.8294 15.5083 34.8699 15.4155C34.9104 15.3227 34.9779 15.2438 35.064 15.1887C35.1501 15.1337 35.2509 15.105 35.3536 15.1062C35.4218 15.107 35.4893 15.1211 35.552 15.1475C35.6148 15.174 35.6716 15.2124 35.7192 15.2605C35.7669 15.3086 35.8044 15.3654 35.8297 15.4278C35.855 15.4902 35.8675 15.5568 35.8666 15.624V15.624Z" fill="#FFB59E"/>
<path d="M42.1045 15.6982C42.1032 15.7993 42.0714 15.8979 42.0132 15.9813C41.955 16.0647 41.8729 16.1292 41.7773 16.1668C41.6818 16.2043 41.577 16.2131 41.4764 16.1921C41.3757 16.1711 41.2837 16.1212 41.2119 16.0487C41.1401 15.9762 41.0917 15.8845 41.073 15.785C41.0542 15.6855 41.0659 15.5828 41.1066 15.4898C41.1472 15.3968 41.215 15.3178 41.3013 15.2627C41.3876 15.2077 41.4886 15.179 41.5915 15.1804C41.6598 15.1812 41.7272 15.1953 41.7899 15.2217C41.8527 15.2482 41.9095 15.2866 41.9572 15.3347C42.0048 15.3828 42.0423 15.4396 42.0676 15.502C42.0929 15.5644 42.1054 15.631 42.1045 15.6982V15.6982Z" fill="#FFB59E"/>
<path d="M39.7475 17.217C39.3659 17.4741 38.9153 17.6142 38.4527 17.6197C37.9901 17.6252 37.5362 17.4958 37.1483 17.2479" stroke="#45413C" stroke-linecap="round" stroke-linejoin="round"/>
<path d="M35.6742 11.0105C37.8302 13.1161 41.5295 12.9201 43.9264 12.2348C44.0178 12.2084 44.0976 12.1527 44.1531 12.0766C44.2086 12.0005 44.2366 11.9083 44.2327 11.8148C44.1625 10.3539 43.5152 8.97743 42.4283 7.97799C41.3415 6.97856 39.9007 6.43492 38.4123 6.4626C36.8981 6.52958 35.4689 7.16874 34.423 8.24658C33.3772 9.32443 32.7957 10.7576 32.8 12.2467L32.7878 13.1903C32.7868 13.2603 32.8034 13.3294 32.836 13.3916C32.8686 13.4537 32.9164 13.507 32.975 13.5468C33.0336 13.5865 33.1013 13.6114 33.172 13.6193C33.2428 13.6272 33.3144 13.6179 33.3806 13.5921C34.2228 13.2673 35.6557 12.4973 35.6742 11.0112" fill="#FFDF3D"/>
<path d="M35.6742 11.0105C37.8302 13.1161 41.5295 12.9201 43.9264 12.2348C44.0178 12.2084 44.0976 12.1527 44.1531 12.0766C44.2086 12.0005 44.2366 11.9083 44.2327 11.8148C44.1625 10.3539 43.5152 8.97743 42.4283 7.97799C41.3415 6.97856 39.9007 6.43492 38.4123 6.4626C36.8981 6.52958 35.4689 7.16874 34.423 8.24658C33.3772 9.32443 32.7957 10.7576 32.8 12.2467L32.7878 13.1903C32.7868 13.2603 32.8034 13.3294 32.836 13.3916C32.8686 13.4537 32.9164 13.507 32.975 13.5468C33.0336 13.5865 33.1013 13.6114 33.172 13.6193C33.2428 13.6272 33.3144 13.6179 33.3806 13.5921C34.2228 13.2673 35.6557 12.4973 35.6742 11.0112" stroke="#45413C" stroke-linecap="round" stroke-linejoin="round"/>
<path d="M38.3831 8.8097C39.5325 8.78822 40.6619 9.10754 41.6239 9.726C42.5859 10.3445 43.3359 11.2334 43.776 12.2768L43.9264 12.2348C44.0178 12.2084 44.0976 12.1527 44.1531 12.0766C44.2086 12.0005 44.2366 11.9083 44.2327 11.8148C44.1625 10.3539 43.5152 8.97743 42.4283 7.97799C41.3414 6.97856 39.9007 6.43492 38.4123 6.4626C36.8981 6.52958 35.4688 7.16874 34.423 8.24658C33.3772 9.32443 32.7957 10.7576 32.8 12.2467L32.7878 13.1903C32.7864 13.2943 32.8239 13.3952 32.8933 13.4738C33.135 12.2002 33.8098 11.0451 34.8072 10.1977C35.8047 9.35029 37.0655 8.86089 38.3831 8.8097V8.8097Z" fill="#FFEF9E"/>
<path d="M35.6742 11.0105C37.8302 13.1161 41.5295 12.9201 43.9264 12.2348C44.0178 12.2084 44.0976 12.1527 44.1531 12.0766C44.2086 12.0005 44.2366 11.9083 44.2327 11.8148C44.1625 10.3539 43.5152 8.97743 42.4283 7.97799C41.3415 6.97856 39.9007 6.43492 38.4123 6.4626C36.8981 6.52958 35.4689 7.16874 34.423 8.24658C33.3772 9.32443 32.7957 10.7576 32.8 12.2467L32.7878 13.1903C32.7868 13.2603 32.8034 13.3294 32.836 13.3916C32.8686 13.4537 32.9164 13.507 32.975 13.5468C33.0336 13.5865 33.1013 13.6114 33.172 13.6193C33.2428 13.6272 33.3144 13.6179 33.3806 13.5921C34.2228 13.2673 35.6557 12.4973 35.6742 11.0112" stroke="#45413C" stroke-linecap="round" stroke-linejoin="round"/>
<path d="M35.6742 11.011C35.4742 10.8608 35.3019 10.6781 35.1647 10.4708" stroke="#45413C" stroke-linecap="round" stroke-linejoin="round"/>
<path d="M36.7415 14.9417C37.1126 14.9417 37.4134 14.6462 37.4134 14.2816C37.4134 13.917 37.1126 13.6215 36.7415 13.6215C36.3704 13.6215 36.0696 13.917 36.0696 14.2816C36.0696 14.6462 36.3704 14.9417 36.7415 14.9417Z" fill="#45413C"/>
<path d="M40.2035 14.9417C40.5746 14.9417 40.8754 14.6462 40.8754 14.2816C40.8754 13.917 40.5746 13.6215 40.2035 13.6215C39.8325 13.6215 39.5316 13.917 39.5316 14.2816C39.5316 14.6462 39.8325 14.9417 40.2035 14.9417Z" fill="#45413C"/>
<path d="M77.6847 32.4048C75.6156 32.4048 73.8388 31.9505 72.3545 31.0419C70.8791 30.1333 69.7411 28.8783 68.9404 27.277C68.1487 25.6667 67.7529 23.8134 67.7529 21.7173C67.7529 19.6122 68.1577 17.7545 68.9674 16.1442C69.7771 14.5249 70.9196 13.2654 72.395 12.3658C73.8793 11.4571 75.6336 11.0028 77.6577 11.0028C79.34 11.0028 80.8289 11.3132 82.1244 11.9339C83.4288 12.5457 84.4679 13.4138 85.2415 14.5384C86.0152 15.6539 86.456 16.9583 86.564 18.4517H81.895C81.706 17.4531 81.2562 16.621 80.5455 15.9553C79.8438 15.2805 78.9037 14.9432 77.7252 14.9432C76.7266 14.9432 75.8495 15.2131 75.0938 15.7528C74.3381 16.2836 73.7489 17.0483 73.3261 18.0469C72.9122 19.0455 72.7053 20.242 72.7053 21.6364C72.7053 23.0488 72.9122 24.2633 73.3261 25.2798C73.7399 26.2874 74.3201 27.0656 75.0668 27.6143C75.8225 28.1541 76.7086 28.424 77.7252 28.424C78.4449 28.424 79.0881 28.2891 79.6549 28.0192C80.2307 27.7403 80.712 27.34 81.0988 26.8182C81.4856 26.2964 81.751 25.6622 81.895 24.9155H86.564C86.447 26.3819 86.0152 27.6818 85.2685 28.8153C84.5218 29.9399 83.5053 30.8215 82.2188 31.4602C80.9324 32.09 79.421 32.4048 77.6847 32.4048ZM97.7164 32.4048C95.6922 32.4048 93.938 31.9595 92.4536 31.0689C90.9692 30.1783 89.8177 28.9323 88.999 27.331C88.1894 25.7296 87.7845 23.8584 87.7845 21.7173C87.7845 19.5762 88.1894 17.7005 88.999 16.0902C89.8177 14.4799 90.9692 13.2294 92.4536 12.3388C93.938 11.4482 95.6922 11.0028 97.7164 11.0028C99.7405 11.0028 101.495 11.4482 102.979 12.3388C104.464 13.2294 105.611 14.4799 106.42 16.0902C107.239 17.7005 107.648 19.5762 107.648 21.7173C107.648 23.8584 107.239 25.7296 106.42 27.331C105.611 28.9323 104.464 30.1783 102.979 31.0689C101.495 31.9595 99.7405 32.4048 97.7164 32.4048ZM97.7434 28.4915C98.8409 28.4915 99.7585 28.1901 100.496 27.5874C101.234 26.9756 101.783 26.157 102.143 25.1314C102.511 24.1058 102.696 22.9633 102.696 21.7038C102.696 20.4354 102.511 19.2884 102.143 18.2628C101.783 17.2282 101.234 16.4051 100.496 15.7933C99.7585 15.1816 98.8409 14.8757 97.7434 14.8757C96.6188 14.8757 95.6832 15.1816 94.9365 15.7933C94.1988 16.4051 93.6456 17.2282 93.2767 18.2628C92.9169 19.2884 92.737 20.4354 92.737 21.7038C92.737 22.9633 92.9169 24.1058 93.2767 25.1314C93.6456 26.157 94.1988 26.9756 94.9365 27.5874C95.6832 28.1901 96.6188 28.4915 97.7434 28.4915ZM109.894 32V11.2727H114.631V14.7273H114.847C115.225 13.5308 115.872 12.6087 116.79 11.9609C117.717 11.3042 118.774 10.9759 119.961 10.9759C120.231 10.9759 120.532 10.9893 120.865 11.0163C121.207 11.0343 121.49 11.0658 121.715 11.1108V15.6044C121.508 15.5324 121.18 15.4695 120.73 15.4155C120.289 15.3525 119.862 15.321 119.448 15.321C118.558 15.321 117.757 15.5144 117.046 15.9013C116.345 16.2791 115.791 16.8054 115.387 17.4801C114.982 18.1548 114.779 18.933 114.779 19.8146V32H109.894ZM128.654 32.4183C127.341 32.4183 126.158 32.1844 125.105 31.7166C124.062 31.2398 123.234 30.5381 122.622 29.6115C122.019 28.6849 121.718 27.5424 121.718 26.1839C121.718 25.0144 121.934 24.0473 122.366 23.2827C122.798 22.518 123.387 21.9062 124.134 21.4474C124.88 20.9886 125.721 20.6423 126.657 20.4084C127.602 20.1655 128.578 19.9901 129.585 19.8821C130.8 19.7562 131.785 19.6437 132.54 19.5447C133.296 19.4368 133.845 19.2749 134.187 19.0589C134.538 18.834 134.713 18.4877 134.713 18.0199V17.9389C134.713 16.9223 134.412 16.1352 133.809 15.5774C133.206 15.0196 132.338 14.7408 131.205 14.7408C130.008 14.7408 129.059 15.0017 128.357 15.5234C127.665 16.0452 127.197 16.6615 126.954 17.3722L122.393 16.7244C122.753 15.465 123.346 14.4124 124.174 13.5668C125.002 12.7121 126.014 12.0734 127.21 11.6506C128.407 11.2188 129.729 11.0028 131.178 11.0028C132.176 11.0028 133.17 11.1198 134.16 11.3537C135.149 11.5876 136.054 11.9744 136.872 12.5142C137.691 13.045 138.348 13.7692 138.842 14.6868C139.346 15.6044 139.598 16.7514 139.598 18.1278V32H134.902V29.1527H134.74C134.443 29.7285 134.025 30.2682 133.485 30.772C132.954 31.2668 132.284 31.6671 131.474 31.973C130.674 32.2699 129.734 32.4183 128.654 32.4183ZM129.923 28.8288C130.903 28.8288 131.753 28.6354 132.473 28.2486C133.193 27.8527 133.746 27.331 134.133 26.6832C134.529 26.0355 134.727 25.3293 134.727 24.5646V22.1222C134.574 22.2481 134.313 22.3651 133.944 22.473C133.584 22.581 133.179 22.6754 132.729 22.7564C132.28 22.8374 131.834 22.9093 131.393 22.9723C130.953 23.0353 130.57 23.0893 130.246 23.1342C129.518 23.2332 128.866 23.3951 128.29 23.62C127.714 23.8449 127.26 24.1598 126.927 24.5646C126.594 24.9605 126.428 25.4732 126.428 26.103C126.428 27.0026 126.756 27.6818 127.413 28.1406C128.069 28.5994 128.906 28.8288 129.923 28.8288Z" fill="#132934"/>
<path d="M106.11 31.3636V59H101.657L88.6347 40.1754H88.4053V59H83.3989V31.3636H87.879L100.888 50.2017H101.13V31.3636H106.11ZM118.625 59.4048C116.547 59.4048 114.752 58.973 113.241 58.1094C111.739 57.2367 110.583 56.0043 109.773 54.4119C108.963 52.8106 108.558 50.9259 108.558 48.7578C108.558 46.6257 108.963 44.7545 109.773 43.1442C110.592 41.5249 111.734 40.2654 113.2 39.3658C114.667 38.4571 116.39 38.0028 118.369 38.0028C119.646 38.0028 120.852 38.2098 121.985 38.6236C123.128 39.0284 124.135 39.6581 125.008 40.5128C125.89 41.3674 126.582 42.456 127.086 43.7784C127.59 45.0919 127.842 46.6572 127.842 48.4744V49.9723H110.852V46.6797H123.159C123.15 45.7441 122.948 44.9119 122.552 44.1832C122.156 43.4455 121.603 42.8653 120.892 42.4425C120.19 42.0196 119.372 41.8082 118.436 41.8082C117.438 41.8082 116.561 42.0511 115.805 42.5369C115.049 43.0137 114.46 43.6435 114.037 44.4261C113.623 45.1998 113.412 46.05 113.403 46.9766V49.8509C113.403 51.0563 113.623 52.0909 114.064 52.9545C114.505 53.8092 115.121 54.4659 115.913 54.9247C116.704 55.3745 117.631 55.5994 118.693 55.5994C119.403 55.5994 120.047 55.5005 120.622 55.3026C121.198 55.0956 121.697 54.7943 122.12 54.3984C122.543 54.0026 122.862 53.5123 123.078 52.9276L127.639 53.4403C127.351 54.6458 126.803 55.6984 125.993 56.598C125.192 57.4886 124.167 58.1813 122.916 58.6761C121.666 59.1619 120.235 59.4048 118.625 59.4048ZM140.425 38.2727V42.0511H128.509V38.2727H140.425ZM131.451 33.3068H136.336V52.7656C136.336 53.4223 136.435 53.9261 136.633 54.277C136.84 54.6188 137.109 54.8527 137.442 54.9787C137.775 55.1046 138.144 55.1676 138.549 55.1676C138.855 55.1676 139.134 55.1451 139.385 55.1001C139.646 55.0552 139.844 55.0147 139.979 54.9787L140.802 58.7976C140.541 58.8875 140.168 58.9865 139.682 59.0945C139.206 59.2024 138.621 59.2654 137.928 59.2834C136.705 59.3194 135.603 59.1349 134.622 58.7301C133.641 58.3163 132.863 57.6776 132.287 56.8139C131.721 55.9503 131.442 54.8707 131.451 53.5753V33.3068Z" fill="#336C88"/>
<line x1="150.5" y1="52" x2="150.5" y2="12" stroke="#336C88"/>
<path d="M161.826 13.7273L166.838 27.7994H166.942L171.953 13.7273H172.938L167.427 29H166.353L160.842 13.7273H161.826ZM181.964 24.9357V17.5455H182.874V29H181.964V27.1431H181.889C181.621 27.7347 181.186 28.217 180.584 28.5898C179.988 28.9627 179.282 29.1491 178.466 29.1491C177.716 29.1491 177.052 28.9851 176.475 28.657C175.898 28.3288 175.446 27.864 175.118 27.2624C174.79 26.6559 174.626 25.935 174.626 25.0998V17.5455H175.536V25.0625C175.536 26.017 175.824 26.7901 176.401 27.3817C176.982 27.9684 177.733 28.2617 178.653 28.2617C179.249 28.2617 179.799 28.1275 180.301 27.859C180.803 27.5906 181.206 27.2077 181.509 26.7106C181.812 26.2085 181.964 25.6168 181.964 24.9357ZM190.27 29.2386C189.236 29.2386 188.336 28.9826 187.571 28.4705C186.805 27.9585 186.213 27.2575 185.796 26.3675C185.378 25.4776 185.169 24.4634 185.169 23.3249C185.169 22.1815 185.378 21.1623 185.796 20.2674C186.218 19.3725 186.798 18.6665 187.533 18.1495C188.269 17.6325 189.109 17.3739 190.054 17.3739C190.695 17.3739 191.302 17.5032 191.874 17.7617C192.45 18.0153 192.957 18.3832 193.395 18.8654C193.837 19.3477 194.183 19.9293 194.432 20.6104C194.685 21.2915 194.812 22.0572 194.812 22.9073V23.4741H185.744V22.6463H193.902C193.902 21.8161 193.733 21.0678 193.395 20.4016C193.057 19.7354 192.597 19.206 192.015 18.8132C191.434 18.4205 190.78 18.2241 190.054 18.2241C189.293 18.2241 188.615 18.4379 188.018 18.8654C187.427 19.288 186.957 19.8597 186.609 20.5806C186.266 21.3015 186.087 22.1069 186.072 22.9968V23.3697C186.072 24.3242 186.238 25.1818 186.571 25.9425C186.91 26.6982 187.392 27.2972 188.018 27.7397C188.645 28.1772 189.395 28.396 190.27 28.396C190.897 28.396 191.431 28.2915 191.874 28.0827C192.321 27.869 192.686 27.6104 192.97 27.3072C193.253 27.0039 193.467 26.7106 193.611 26.4272L194.439 26.7628C194.265 27.1456 193.994 27.5284 193.626 27.9112C193.263 28.2891 192.801 28.6048 192.239 28.8583C191.682 29.1119 191.026 29.2386 190.27 29.2386ZM198.014 13.7273V29H197.104V13.7273H198.014ZM209.314 17.5455L205.176 29H204.146L200.008 17.5455H200.984L204.624 27.8292H204.698L208.337 17.5455H209.314ZM215.374 29.2386C214.34 29.2386 213.44 28.9826 212.675 28.4705C211.909 27.9585 211.318 27.2575 210.9 26.3675C210.482 25.4776 210.273 24.4634 210.273 23.3249C210.273 22.1815 210.482 21.1623 210.9 20.2674C211.322 19.3725 211.902 18.6665 212.637 18.1495C213.373 17.6325 214.213 17.3739 215.158 17.3739C215.799 17.3739 216.406 17.5032 216.978 17.7617C217.554 18.0153 218.061 18.3832 218.499 18.8654C218.941 19.3477 219.287 19.9293 219.536 20.6104C219.789 21.2915 219.916 22.0572 219.916 22.9073V23.4741H210.848V22.6463H219.006C219.006 21.8161 218.837 21.0678 218.499 20.4016C218.161 19.7354 217.701 19.206 217.119 18.8132C216.538 18.4205 215.884 18.2241 215.158 18.2241C214.397 18.2241 213.719 18.4379 213.122 18.8654C212.531 19.288 212.061 19.8597 211.713 20.5806C211.37 21.3015 211.191 22.1069 211.176 22.9968V23.3697C211.176 24.3242 211.342 25.1818 211.675 25.9425C212.014 26.6982 212.496 27.2972 213.122 27.7397C213.749 28.1772 214.499 28.396 215.374 28.396C216.001 28.396 216.535 28.2915 216.978 28.0827C217.425 27.869 217.791 27.6104 218.074 27.3072C218.357 27.0039 218.571 26.7106 218.715 26.4272L219.543 26.7628C219.369 27.1456 219.098 27.5284 218.73 27.9112C218.367 28.2891 217.905 28.6048 217.343 28.8583C216.786 29.1119 216.13 29.2386 215.374 29.2386ZM231.741 29.2386C230.707 29.2386 229.807 28.9826 229.042 28.4705C228.276 27.9585 227.684 27.2575 227.267 26.3675C226.849 25.4776 226.64 24.4634 226.64 23.3249C226.64 22.1815 226.849 21.1623 227.267 20.2674C227.689 19.3725 228.269 18.6665 229.004 18.1495C229.74 17.6325 230.58 17.3739 231.525 17.3739C232.166 17.3739 232.773 17.5032 233.345 17.7617C233.921 18.0153 234.428 18.3832 234.866 18.8654C235.308 19.3477 235.654 19.9293 235.902 20.6104C236.156 21.2915 236.283 22.0572 236.283 22.9073V23.4741H227.215V22.6463H235.373C235.373 21.8161 235.204 21.0678 234.866 20.4016C234.528 19.7354 234.068 19.206 233.486 18.8132C232.905 18.4205 232.251 18.2241 231.525 18.2241C230.764 18.2241 230.086 18.4379 229.489 18.8654C228.897 19.288 228.428 19.8597 228.08 20.5806C227.737 21.3015 227.558 22.1069 227.543 22.9968V23.3697C227.543 24.3242 227.709 25.1818 228.042 25.9425C228.38 26.6982 228.863 27.2972 229.489 27.7397C230.115 28.1772 230.866 28.396 231.741 28.396C232.368 28.396 232.902 28.2915 233.345 28.0827C233.792 27.869 234.157 27.6104 234.441 27.3072C234.724 27.0039 234.938 26.7106 235.082 26.4272L235.91 26.7628C235.736 27.1456 235.465 27.5284 235.097 27.9112C234.734 28.2891 234.272 28.6048 233.71 28.8583C233.153 29.1119 232.497 29.2386 231.741 29.2386ZM239.485 13.7273V29H238.575V13.7273H239.485ZM247.477 33.2955V17.5455H248.364V20.1033H248.476C248.655 19.6112 248.906 19.1587 249.229 18.7461C249.557 18.3335 249.963 18.0028 250.445 17.7543C250.932 17.5007 251.504 17.3739 252.16 17.3739C253.085 17.3739 253.89 17.6275 254.576 18.1346C255.262 18.6417 255.794 19.3427 256.172 20.2376C256.55 21.1275 256.739 22.1491 256.739 23.3026C256.739 24.456 256.548 25.4801 256.165 26.375C255.787 27.2649 255.255 27.9659 254.569 28.478C253.888 28.9851 253.09 29.2386 252.175 29.2386C251.524 29.2386 250.952 29.1143 250.46 28.8658C249.973 28.6172 249.562 28.2866 249.229 27.8739C248.901 27.4563 248.65 26.9989 248.476 26.5018H248.387V33.2955H247.477ZM248.372 23.2951C248.372 24.2695 248.521 25.142 248.819 25.9126C249.118 26.6783 249.545 27.2848 250.102 27.7322C250.659 28.1747 251.322 28.396 252.093 28.396C252.874 28.396 253.542 28.1722 254.099 27.7248C254.661 27.2724 255.088 26.6609 255.382 25.8903C255.68 25.1197 255.829 24.2546 255.829 23.2951C255.829 22.3356 255.682 21.473 255.389 20.7074C255.096 19.9418 254.671 19.3377 254.114 18.8952C253.557 18.4478 252.883 18.2241 252.093 18.2241C251.312 18.2241 250.644 18.4453 250.087 18.8878C249.535 19.3253 249.11 19.9268 248.812 20.6925C248.518 21.4531 248.372 22.3207 248.372 23.2951ZM262.079 29.2461C261.418 29.2461 260.812 29.1143 260.26 28.8509C259.713 28.5874 259.273 28.2021 258.94 27.695C258.612 27.1879 258.448 26.5714 258.448 25.8455C258.448 25.3683 258.532 24.9482 258.701 24.5852C258.87 24.2223 259.131 23.9091 259.484 23.6456C259.837 23.3821 260.289 23.1658 260.841 22.9968C261.393 22.8228 262.052 22.6886 262.818 22.5941C263.399 22.5245 263.919 22.4574 264.376 22.3928C264.834 22.3232 265.191 22.2163 265.45 22.0721C265.713 21.9279 265.845 21.7092 265.845 21.4158V20.9386C265.845 20.1033 265.582 19.4396 265.055 18.9474C264.528 18.4553 263.802 18.2092 262.877 18.2092C262.057 18.2092 261.366 18.3906 260.804 18.7536C260.247 19.1115 259.857 19.5739 259.633 20.1406L258.776 19.82C258.994 19.2731 259.31 18.8182 259.723 18.4553C260.14 18.0923 260.618 17.8214 261.155 17.6424C261.696 17.4634 262.263 17.3739 262.855 17.3739C263.367 17.3739 263.854 17.446 264.316 17.5902C264.784 17.7344 265.199 17.9531 265.562 18.2464C265.93 18.5398 266.221 18.9151 266.434 19.3725C266.648 19.8249 266.755 20.3668 266.755 20.9982V29H265.845V26.9343H265.778C265.579 27.3619 265.306 27.7521 264.958 28.1051C264.615 28.4531 264.2 28.7315 263.712 28.9403C263.23 29.1442 262.686 29.2461 262.079 29.2461ZM262.169 28.4034C262.885 28.4034 263.519 28.2294 264.07 27.8814C264.627 27.5284 265.062 27.0462 265.375 26.4347C265.689 25.8232 265.845 25.1296 265.845 24.354V22.6687C265.731 22.7681 265.564 22.8576 265.346 22.9371C265.132 23.0117 264.888 23.0788 264.615 23.1385C264.346 23.1932 264.063 23.2429 263.765 23.2876C263.471 23.3274 263.185 23.3647 262.907 23.3995C262.072 23.4989 261.391 23.6531 260.864 23.8619C260.342 24.0657 259.959 24.3342 259.715 24.6673C259.477 25.0004 259.357 25.4031 259.357 25.8754C259.357 26.6559 259.626 27.2724 260.163 27.7248C260.7 28.1772 261.368 28.4034 262.169 28.4034ZM269.729 29V17.5455H270.617V19.3352H270.699C270.948 18.7486 271.368 18.2788 271.959 17.9258C272.551 17.5678 273.225 17.3888 273.98 17.3888C274.06 17.3888 274.139 17.3888 274.219 17.3888C274.298 17.3888 274.373 17.3913 274.443 17.3963V18.3136C274.383 18.3086 274.311 18.3011 274.226 18.2912C274.147 18.2763 274.047 18.2688 273.928 18.2688C273.292 18.2688 272.725 18.4055 272.228 18.679C271.736 18.9524 271.348 19.3303 271.064 19.8125C270.781 20.2898 270.639 20.8366 270.639 21.4531V29H269.729ZM200.338 50.2386C199.419 50.2386 198.616 49.9851 197.93 49.478C197.244 48.9709 196.712 48.2724 196.334 47.3825C195.961 46.4876 195.774 45.4609 195.774 44.3026C195.774 43.1541 195.963 42.1349 196.341 41.245C196.724 40.3501 197.258 39.6491 197.945 39.142C198.631 38.63 199.431 38.3739 200.346 38.3739C201.002 38.3739 201.571 38.5007 202.054 38.7543C202.541 39.0028 202.948 39.3335 203.277 39.7461C203.61 40.1587 203.863 40.6112 204.037 41.1033H204.127V34.7273H205.029V50H204.149V47.5018H204.037C203.853 47.994 203.597 48.4489 203.269 48.8665C202.941 49.2791 202.533 49.6122 202.046 49.8658C201.559 50.1143 200.99 50.2386 200.338 50.2386ZM200.42 49.396C201.196 49.396 201.86 49.1747 202.412 48.7322C202.968 48.2848 203.393 47.6783 203.687 46.9126C203.985 46.142 204.134 45.2695 204.134 44.2951C204.134 43.3207 203.985 42.4531 203.687 41.6925C203.393 40.9268 202.968 40.3253 202.412 39.8878C201.86 39.4453 201.196 39.2241 200.42 39.2241C199.635 39.2241 198.961 39.4478 198.399 39.8952C197.843 40.3377 197.415 40.9418 197.117 41.7074C196.823 42.473 196.677 43.3356 196.677 44.2951C196.677 45.2546 196.823 46.1197 197.117 46.8903C197.415 47.6609 197.843 48.2724 198.399 48.7248C198.961 49.1722 199.635 49.396 200.42 49.396ZM212.75 50.2386C211.716 50.2386 210.816 49.9826 210.051 49.4705C209.285 48.9585 208.693 48.2575 208.276 47.3675C207.858 46.4776 207.649 45.4634 207.649 44.3249C207.649 43.1815 207.858 42.1623 208.276 41.2674C208.698 40.3725 209.277 39.6665 210.013 39.1495C210.749 38.6325 211.589 38.3739 212.534 38.3739C213.175 38.3739 213.782 38.5032 214.353 38.7617C214.93 39.0153 215.437 39.3832 215.875 39.8654C216.317 40.3477 216.663 40.9293 216.911 41.6104C217.165 42.2915 217.292 43.0572 217.292 43.9073V44.4741H208.224V43.6463H216.382C216.382 42.8161 216.213 42.0678 215.875 41.4016C215.537 40.7354 215.077 40.206 214.495 39.8132C213.913 39.4205 213.26 39.2241 212.534 39.2241C211.773 39.2241 211.095 39.4379 210.498 39.8654C209.906 40.288 209.437 40.8597 209.089 41.5806C208.746 42.3015 208.567 43.1069 208.552 43.9968V44.3697C208.552 45.3242 208.718 46.1818 209.051 46.9425C209.389 47.6982 209.872 48.2972 210.498 48.7397C211.124 49.1772 211.875 49.396 212.75 49.396C213.377 49.396 213.911 49.2915 214.353 49.0827C214.801 48.869 215.166 48.6104 215.45 48.3072C215.733 48.0039 215.947 47.7106 216.091 47.4272L216.919 47.7628C216.745 48.1456 216.474 48.5284 216.106 48.9112C215.743 49.2891 215.281 49.6048 214.719 49.8583C214.162 50.1119 213.506 50.2386 212.75 50.2386ZM228.945 50.2386C227.971 50.2386 227.113 49.9826 226.373 49.4705C225.632 48.9535 225.053 48.2475 224.635 47.3526C224.222 46.4577 224.016 45.4435 224.016 44.31C224.016 43.1765 224.225 42.1623 224.643 41.2674C225.06 40.3725 225.639 39.6665 226.38 39.1495C227.121 38.6325 227.974 38.3739 228.938 38.3739C229.664 38.3739 230.325 38.5231 230.922 38.8214C231.523 39.1197 232.02 39.5348 232.413 40.0668C232.811 40.5987 233.064 41.2152 233.174 41.9162H232.249C232.1 41.1406 231.727 40.4993 231.131 39.9922C230.539 39.4801 229.811 39.2241 228.945 39.2241C228.17 39.2241 227.479 39.4428 226.872 39.8803C226.266 40.3129 225.789 40.9119 225.441 41.6776C225.093 42.4382 224.919 43.3107 224.919 44.2951C224.919 45.2646 225.088 46.1346 225.426 46.9052C225.764 47.6708 226.236 48.2773 226.843 48.7248C227.449 49.1722 228.15 49.396 228.945 49.396C229.507 49.396 230.019 49.2841 230.482 49.0604C230.949 48.8366 231.339 48.5185 231.653 48.1058C231.966 47.6932 232.172 47.2109 232.271 46.6591H233.196C233.087 47.3651 232.838 47.9865 232.45 48.5234C232.063 49.0604 231.568 49.4805 230.966 49.7837C230.365 50.087 229.691 50.2386 228.945 50.2386ZM239.717 50.2386C238.772 50.2386 237.932 49.9851 237.196 49.478C236.46 48.9659 235.881 48.2624 235.458 47.3675C235.036 46.4727 234.825 45.4535 234.825 44.31C234.825 43.1616 235.036 42.1424 235.458 41.2525C235.881 40.3576 236.46 39.6541 237.196 39.142C237.932 38.63 238.772 38.3739 239.717 38.3739C240.661 38.3739 241.501 38.63 242.237 39.142C242.973 39.6541 243.552 40.3576 243.975 41.2525C244.397 42.1474 244.609 43.1665 244.609 44.31C244.609 45.4535 244.397 46.4727 243.975 47.3675C243.552 48.2624 242.973 48.9659 242.237 49.478C241.501 49.9851 240.661 50.2386 239.717 50.2386ZM239.717 49.396C240.517 49.396 241.216 49.1697 241.812 48.7173C242.414 48.2649 242.879 47.6534 243.207 46.8828C243.54 46.1122 243.706 45.2546 243.706 44.31C243.706 43.3654 243.54 42.5103 243.207 41.7447C242.874 40.9741 242.409 40.3626 241.812 39.9102C241.216 39.4528 240.517 39.2241 239.717 39.2241C238.916 39.2241 238.218 39.4528 237.621 39.9102C237.025 40.3626 236.56 40.9741 236.227 41.7447C235.893 42.5103 235.727 43.3654 235.727 44.31C235.727 45.2546 235.891 46.1122 236.219 46.8828C236.552 47.6534 237.017 48.2649 237.614 48.7173C238.215 49.1697 238.916 49.396 239.717 49.396ZM247.223 50V34.7273H248.126V41.1033H248.215C248.394 40.6112 248.648 40.1587 248.976 39.7461C249.304 39.3335 249.712 39.0028 250.199 38.7543C250.686 38.5007 251.255 38.3739 251.907 38.3739C252.826 38.3739 253.629 38.63 254.315 39.142C255.001 39.6491 255.533 40.3501 255.911 41.245C256.289 42.1349 256.478 43.1541 256.478 44.3026C256.478 45.4609 256.289 46.4876 255.911 47.3825C255.533 48.2724 255.004 48.9709 254.323 49.478C253.642 49.9851 252.839 50.2386 251.914 50.2386C251.263 50.2386 250.693 50.1143 250.206 49.8658C249.719 49.6122 249.311 49.2791 248.983 48.8665C248.655 48.4489 248.399 47.994 248.215 47.5018H248.111V50H247.223ZM248.118 44.2951C248.118 45.2695 248.265 46.142 248.558 46.9126C248.856 47.6783 249.284 48.2848 249.841 48.7322C250.398 49.1747 251.064 49.396 251.839 49.396C252.625 49.396 253.296 49.1722 253.853 48.7248C254.41 48.2724 254.835 47.6609 255.128 46.8903C255.426 46.1197 255.576 45.2546 255.576 44.2951C255.576 43.3356 255.426 42.473 255.128 41.7074C254.835 40.9418 254.41 40.3377 253.853 39.8952C253.296 39.4478 252.625 39.2241 251.839 39.2241C251.064 39.2241 250.398 39.4453 249.841 39.8878C249.284 40.3253 248.856 40.9268 248.558 41.6925C248.265 42.4531 248.118 43.3207 248.118 44.2951ZM258.777 50V38.5455H259.665V40.3352H259.747C259.996 39.7486 260.416 39.2788 261.007 38.9258C261.599 38.5678 262.273 38.3888 263.028 38.3888C263.108 38.3888 263.187 38.3888 263.267 38.3888C263.346 38.3888 263.421 38.3913 263.491 38.3963V39.3136C263.431 39.3086 263.359 39.3011 263.274 39.2912C263.195 39.2763 263.095 39.2688 262.976 39.2688C262.34 39.2688 261.773 39.4055 261.276 39.679C260.784 39.9524 260.396 40.3303 260.112 40.8125C259.829 41.2898 259.687 41.8366 259.687 42.4531V50H258.777ZM269.213 50.2386C268.179 50.2386 267.279 49.9826 266.513 49.4705C265.748 48.9585 265.156 48.2575 264.739 47.3675C264.321 46.4776 264.112 45.4634 264.112 44.3249C264.112 43.1815 264.321 42.1623 264.739 41.2674C265.161 40.3725 265.74 39.6665 266.476 39.1495C267.212 38.6325 268.052 38.3739 268.997 38.3739C269.638 38.3739 270.245 38.5032 270.816 38.7617C271.393 39.0153 271.9 39.3832 272.338 39.8654C272.78 40.3477 273.126 40.9293 273.374 41.6104C273.628 42.2915 273.755 43.0572 273.755 43.9073V44.4741H264.686V43.6463H272.845C272.845 42.8161 272.676 42.0678 272.338 41.4016C272 40.7354 271.54 40.206 270.958 39.8132C270.376 39.4205 269.723 39.2241 268.997 39.2241C268.236 39.2241 267.558 39.4379 266.961 39.8654C266.369 40.288 265.9 40.8597 265.551 41.5806C265.208 42.3015 265.029 43.1069 265.015 43.9968V44.3697C265.015 45.3242 265.181 46.1818 265.514 46.9425C265.852 47.6982 266.335 48.2972 266.961 48.7397C267.587 49.1772 268.338 49.396 269.213 49.396C269.839 49.396 270.374 49.2915 270.816 49.0827C271.264 48.869 271.629 48.6104 271.913 48.3072C272.196 48.0039 272.41 47.7106 272.554 47.4272L273.382 47.7628C273.208 48.1456 272.937 48.5284 272.569 48.9112C272.206 49.2891 271.744 49.6048 271.182 49.8583C270.625 50.1119 269.969 50.2386 269.213 50.2386Z" fill="#336C88"/>
</svg>
